<svg xmlns="http://www.w3.org/2000/svg" xmlns:xlink="http://www.w3.org/1999/xlink" width="125" zoomAndPan="magnify" viewBox="0 0 93.75 94.499997" height="126" preserveAspectRatio="xMidYMid meet" version="1.0"><defs><filter x="0%" y="0%" width="100%" height="100%" id="055d1b46b9"><feColorMatrix values="0 0 0 0 1 0 0 0 0 1 0 0 0 0 1 0 0 0 1 0" color-interpolation-filters="sRGB"/></filter><mask id="2e290a28bb"><g filter="url(#055d1b46b9)"><rect x="-9.375" width="112.5" fill="currentColor" y="-9.45" height="113.399996" fill-opacity="0.5"/></g></mask><clipPath id="6ee91c97ce"><path d="M 0.359375 0.328125 L 73.035156 0.328125 L 73.035156 73.007812 L 0.359375 73.007812 Z M 0.359375 0.328125 " clip-rule="nonzero"/></clipPath><clipPath id="c6a5114243"><path d="M 36.695312 0.328125 C 16.628906 0.328125 0.359375 16.597656 0.359375 36.667969 C 0.359375 56.738281 16.628906 73.007812 36.695312 73.007812 C 56.765625 73.007812 73.035156 56.738281 73.035156 36.667969 C 73.035156 16.597656 56.765625 0.328125 36.695312 0.328125 Z M 36.695312 0.328125 " clip-rule="nonzero"/></clipPath><clipPath id="dd761d9534"><rect x="0" width="74" y="0" height="74"/></clipPath><mask id="c0d9db26ca"><g filter="url(#055d1b46b9)"><rect x="-9.375" width="112.5" fill="currentColor" y="-9.45" height="113.399996" fill-opacity="0.5"/></g></mask><clipPath id="921474a752"><path d="M 0.875 0 L 24.519531 0 L 24.519531 23.640625 L 0.875 23.640625 Z M 0.875 0 " clip-rule="nonzero"/></clipPath><clipPath id="6fbd261cb5"><path d="M 12.695312 0 C 6.167969 0 0.875 5.292969 0.875 11.820312 C 0.875 18.351562 6.167969 23.640625 12.695312 23.640625 C 19.226562 23.640625 24.519531 18.351562 24.519531 11.820312 C 24.519531 5.292969 19.226562 0 12.695312 0 Z M 12.695312 0 " clip-rule="nonzero"/></clipPath><clipPath id="3148f84775"><rect x="0" width="25" y="0" height="24"/></clipPath><mask id="906811d19b"><g filter="url(#055d1b46b9)"><rect x="-9.375" width="112.5" fill="currentColor" y="-9.45" height="113.399996" fill-opacity="0.5"/></g></mask><clipPath id="4b8b0b08e6"><path d="M 0.875 0.695312 L 24.519531 0.695312 L 24.519531 24.335938 L 0.875 24.335938 Z M 0.875 0.695312 " clip-rule="nonzero"/></clipPath><clipPath id="4c538caadf"><path d="M 12.695312 0.695312 C 6.167969 0.695312 0.875 5.988281 0.875 12.515625 C 0.875 19.042969 6.167969 24.335938 12.695312 24.335938 C 19.226562 24.335938 24.519531 19.042969 24.519531 12.515625 C 24.519531 5.988281 19.226562 0.695312 12.695312 0.695312 Z M 12.695312 0.695312 " clip-rule="nonzero"/></clipPath><clipPath id="2a658427e2"><rect x="0" width="25" y="0" height="25"/></clipPath><clipPath id="9966420a4c"><path d="M 69 34 L 93.378906 34 L 93.378906 59 L 69 59 Z M 69 34 " clip-rule="nonzero"/></clipPath><mask id="628d79d9de"><g filter="url(#055d1b46b9)"><rect x="-9.375" width="112.5" fill="currentColor" y="-9.45" height="113.399996" fill-opacity="0.5"/></g></mask><clipPath id="81d61493d5"><path d="M 0.722656 0.472656 L 24.367188 0.472656 L 24.367188 24.117188 L 0.722656 24.117188 Z M 0.722656 0.472656 " clip-rule="nonzero"/></clipPath><clipPath id="2fbc4bdfe5"><path d="M 12.542969 0.472656 C 6.015625 0.472656 0.722656 5.765625 0.722656 12.296875 C 0.722656 18.824219 6.015625 24.117188 12.542969 24.117188 C 19.074219 24.117188 24.367188 18.824219 24.367188 12.296875 C 24.367188 5.765625 19.074219 0.472656 12.542969 0.472656 Z M 12.542969 0.472656 " clip-rule="nonzero"/></clipPath><clipPath id="fc927a7982"><rect x="0" width="25" y="0" height="25"/></clipPath><clipPath id="20312ac456"><path d="M 0.121094 34 L 24 34 L 24 59 L 0.121094 59 Z M 0.121094 34 " clip-rule="nonzero"/></clipPath><mask id="3c340748c1"><g filter="url(#055d1b46b9)"><rect x="-9.375" width="112.5" fill="currentColor" y="-9.45" height="113.399996" fill-opacity="0.5"/></g></mask><clipPath id="e8143376dd"><path d="M 0.121094 0.472656 L 23.765625 0.472656 L 23.765625 24.117188 L 0.121094 24.117188 Z M 0.121094 0.472656 " clip-rule="nonzero"/></clipPath><clipPath id="0f281d1f91"><path d="M 11.945312 0.472656 C 5.414062 0.472656 0.121094 5.765625 0.121094 12.296875 C 0.121094 18.824219 5.414062 24.117188 11.945312 24.117188 C 18.472656 24.117188 23.765625 18.824219 23.765625 12.296875 C 23.765625 5.765625 18.472656 0.472656 11.945312 0.472656 Z M 11.945312 0.472656 " clip-rule="nonzero"/></clipPath><clipPath id="cb30ec1750"><rect x="0" width="24" y="0" height="25"/></clipPath></defs><g mask="url(#2e290a28bb)"><g transform="matrix(1, 0, 0, 1, 10, 10)"><g clip-path="url(#dd761d9534)"><g clip-path="url(#6ee91c97ce)"><g clip-path="url(#c6a5114243)"><path fill="currentColor" d="M 0.359375 0.328125 L 73.035156 0.328125 L 73.035156 73.007812 L 0.359375 73.007812 Z M 0.359375 0.328125 " fill-opacity="1" fill-rule="nonzero"/></g></g></g></g></g><g mask="url(#c0d9db26ca)"><g transform="matrix(1, 0, 0, 1, 34, 0)"><g clip-path="url(#3148f84775)"><g clip-path="url(#921474a752)"><g clip-path="url(#6fbd261cb5)"><path fill="currentColor" d="M 0.875 0 L 24.519531 0 L 24.519531 23.640625 L 0.875 23.640625 Z M 0.875 0 " fill-opacity="1" fill-rule="nonzero"/></g></g></g></g></g><g mask="url(#906811d19b)"><g transform="matrix(1, 0, 0, 1, 34, 69)"><g clip-path="url(#2a658427e2)"><g clip-path="url(#4b8b0b08e6)"><g clip-path="url(#4c538caadf)"><path fill="currentColor" d="M 0.875 0.695312 L 24.519531 0.695312 L 24.519531 24.335938 L 0.875 24.335938 Z M 0.875 0.695312 " fill-opacity="1" fill-rule="nonzero"/></g></g></g></g></g><g clip-path="url(#9966420a4c)"><g mask="url(#628d79d9de)"><g transform="matrix(1, 0, 0, 1, 69, 34)"><g clip-path="url(#fc927a7982)"><g clip-path="url(#81d61493d5)"><g clip-path="url(#2fbc4bdfe5)"><path fill="currentColor" d="M 0.722656 0.472656 L 24.367188 0.472656 L 24.367188 24.117188 L 0.722656 24.117188 Z M 0.722656 0.472656 " fill-opacity="1" fill-rule="nonzero"/></g></g></g></g></g></g><g clip-path="url(#20312ac456)"><g mask="url(#3c340748c1)"><g transform="matrix(1, 0, 0, 1, 0, 34)"><g clip-path="url(#cb30ec1750)"><g clip-path="url(#e8143376dd)"><g clip-path="url(#0f281d1f91)"><path fill="currentColor" d="M 0.121094 0.472656 L 23.765625 0.472656 L 23.765625 24.117188 L 0.121094 24.117188 Z M 0.121094 0.472656 " fill-opacity="1" fill-rule="nonzero"/></g></g></g></g></g></g></svg>