<svg xmlns="http://www.w3.org/2000/svg" xmlns:xlink="http://www.w3.org/1999/xlink" width="163" zoomAndPan="magnify" viewBox="0 0 122.25 123.749996" height="165" preserveAspectRatio="xMidYMid meet" version="1.0"><defs><filter x="0%" y="0%" width="100%" height="100%" id="8dab59b0ae"><feColorMatrix values="0 0 0 0 1 0 0 0 0 1 0 0 0 0 1 0 0 0 1 0" color-interpolation-filters="sRGB"/></filter><mask id="239d1467e2"><g filter="url(#8dab59b0ae)"><rect x="-12.225" width="146.7" fill="currentColor" y="-12.375" height="148.499995" fill-opacity="0.5"/></g></mask><clipPath id="82165d81f5"><path d="M 0.234375 0.320312 L 102.894531 0.320312 L 102.894531 102.980469 L 0.234375 102.980469 Z M 0.234375 0.320312 " clip-rule="nonzero"/></clipPath><clipPath id="7b9e4ddec3"><path d="M 51.5625 0.320312 C 23.214844 0.320312 0.234375 23.300781 0.234375 51.648438 C 0.234375 80 23.214844 102.980469 51.5625 102.980469 C 79.914062 102.980469 102.894531 80 102.894531 51.648438 C 102.894531 23.300781 79.914062 0.320312 51.5625 0.320312 Z M 51.5625 0.320312 " clip-rule="nonzero"/></clipPath><clipPath id="fdf8b82d72"><rect x="0" width="104" y="0" height="104"/></clipPath><clipPath id="aa9014b7e1"><path d="M 48 0.253906 L 73 0.253906 L 73 25 L 48 25 Z M 48 0.253906 " clip-rule="nonzero"/></clipPath><mask id="395ad1caa7"><g filter="url(#8dab59b0ae)"><rect x="-12.225" width="146.7" fill="currentColor" y="-12.375" height="148.499995" fill-opacity="0.5"/></g></mask><clipPath id="a035d67272"><path d="M 0.753906 0.253906 L 24.375 0.253906 L 24.375 23.875 L 0.753906 23.875 Z M 0.753906 0.253906 " clip-rule="nonzero"/></clipPath><clipPath id="91e9130b28"><path d="M 12.5625 0.253906 C 6.039062 0.253906 0.753906 5.542969 0.753906 12.0625 C 0.753906 18.585938 6.039062 23.875 12.5625 23.875 C 19.085938 23.875 24.375 18.585938 24.375 12.0625 C 24.375 5.542969 19.085938 0.253906 12.5625 0.253906 Z M 12.5625 0.253906 " clip-rule="nonzero"/></clipPath><clipPath id="0709c6bfe4"><rect x="0" width="25" y="0" height="25"/></clipPath><mask id="83e18cf688"><g filter="url(#8dab59b0ae)"><rect x="-12.225" width="146.7" fill="currentColor" y="-12.375" height="148.499995" fill-opacity="0.5"/></g></mask><clipPath id="7086463f0f"><path d="M 0.6875 0.1875 L 24.308594 0.1875 L 24.308594 23.808594 L 0.6875 23.808594 Z M 0.6875 0.1875 " clip-rule="nonzero"/></clipPath><clipPath id="b25862e276"><path d="M 12.5 0.1875 C 5.976562 0.1875 0.6875 5.476562 0.6875 12 C 0.6875 18.523438 5.976562 23.808594 12.5 23.808594 C 19.023438 23.808594 24.308594 18.523438 24.308594 12 C 24.308594 5.476562 19.023438 0.1875 12.5 0.1875 Z M 12.5 0.1875 " clip-rule="nonzero"/></clipPath><clipPath id="a7bd707d9f"><rect x="0" width="25" y="0" height="24"/></clipPath><clipPath id="738e951247"><path d="M 97 49 L 121.503906 49 L 121.503906 74 L 97 74 Z M 97 49 " clip-rule="nonzero"/></clipPath><mask id="78c4aa0ae0"><g filter="url(#8dab59b0ae)"><rect x="-12.225" width="146.7" fill="currentColor" y="-12.375" height="148.499995" fill-opacity="0.5"/></g></mask><clipPath id="5767af9ac6"><path d="M 0.847656 1.09375 L 24.46875 1.09375 L 24.46875 24.714844 L 0.847656 24.714844 Z M 0.847656 1.09375 " clip-rule="nonzero"/></clipPath><clipPath id="e7320596cf"><path d="M 12.65625 1.09375 C 6.136719 1.09375 0.847656 6.382812 0.847656 12.90625 C 0.847656 19.425781 6.136719 24.714844 12.65625 24.714844 C 19.179688 24.714844 24.46875 19.425781 24.46875 12.90625 C 24.46875 6.382812 19.179688 1.09375 12.65625 1.09375 Z M 12.65625 1.09375 " clip-rule="nonzero"/></clipPath><clipPath id="b87a315955"><rect x="0" width="25" y="0" height="25"/></clipPath><mask id="7706d8fe04"><g filter="url(#8dab59b0ae)"><rect x="-12.225" width="146.7" fill="currentColor" y="-12.375" height="148.499995" fill-opacity="0.5"/></g></mask><clipPath id="f7f4ca5004"><path d="M 0 1.09375 L 23.621094 1.09375 L 23.621094 24.714844 L 0 24.714844 Z M 0 1.09375 " clip-rule="nonzero"/></clipPath><clipPath id="47321eef72"><path d="M 11.8125 1.09375 C 5.289062 1.09375 0 6.382812 0 12.90625 C 0 19.425781 5.289062 24.714844 11.8125 24.714844 C 18.335938 24.714844 23.621094 19.425781 23.621094 12.90625 C 23.621094 6.382812 18.335938 1.09375 11.8125 1.09375 Z M 11.8125 1.09375 " clip-rule="nonzero"/></clipPath><clipPath id="1ab3652daf"><rect x="0" width="24" y="0" height="25"/></clipPath><mask id="09e02f52e8"><g filter="url(#8dab59b0ae)"><rect x="-12.225" width="146.7" fill="currentColor" y="-12.375" height="148.499995" fill-opacity="0.5"/></g></mask><clipPath id="ea4ba7f820"><path d="M 1.035156 1.050781 L 24.65625 1.050781 L 24.65625 24.675781 L 1.035156 24.675781 Z M 1.035156 1.050781 " clip-rule="nonzero"/></clipPath><clipPath id="dcf40ec442"><path d="M 12.847656 1.050781 C 6.324219 1.050781 1.035156 6.339844 1.035156 12.863281 C 1.035156 19.386719 6.324219 24.675781 12.847656 24.675781 C 19.371094 24.675781 24.65625 19.386719 24.65625 12.863281 C 24.65625 6.339844 19.371094 1.050781 12.847656 1.050781 Z M 12.847656 1.050781 " clip-rule="nonzero"/></clipPath><clipPath id="ad67659c39"><rect x="0" width="25" y="0" height="25"/></clipPath><mask id="7ce788f2a4"><g filter="url(#8dab59b0ae)"><rect x="-12.225" width="146.7" fill="currentColor" y="-12.375" height="148.499995" fill-opacity="0.5"/></g></mask><clipPath id="179097cdac"><path d="M 1.015625 1.050781 L 24.640625 1.050781 L 24.640625 24.675781 L 1.015625 24.675781 Z M 1.015625 1.050781 " clip-rule="nonzero"/></clipPath><clipPath id="b6085dd819"><path d="M 12.828125 1.050781 C 6.304688 1.050781 1.015625 6.339844 1.015625 12.863281 C 1.015625 19.386719 6.304688 24.675781 12.828125 24.675781 C 19.351562 24.675781 24.640625 19.386719 24.640625 12.863281 C 24.640625 6.339844 19.351562 1.050781 12.828125 1.050781 Z M 12.828125 1.050781 " clip-rule="nonzero"/></clipPath><clipPath id="ad92397040"><rect x="0" width="25" y="0" height="25"/></clipPath><mask id="045c6e7e59"><g filter="url(#8dab59b0ae)"><rect x="-12.225" width="146.7" fill="currentColor" y="-12.375" height="148.499995" fill-opacity="0.5"/></g></mask><clipPath id="e58e642c39"><path d="M 1.035156 0.402344 L 24.65625 0.402344 L 24.65625 24.023438 L 1.035156 24.023438 Z M 1.035156 0.402344 " clip-rule="nonzero"/></clipPath><clipPath id="a2deb1818f"><path d="M 12.847656 0.402344 C 6.324219 0.402344 1.035156 5.691406 1.035156 12.214844 C 1.035156 18.738281 6.324219 24.023438 12.847656 24.023438 C 19.371094 24.023438 24.65625 18.738281 24.65625 12.214844 C 24.65625 5.691406 19.371094 0.402344 12.847656 0.402344 Z M 12.847656 0.402344 " clip-rule="nonzero"/></clipPath><clipPath id="3b6d984715"><rect x="0" width="25" y="0" height="25"/></clipPath><mask id="88d47006b9"><g filter="url(#8dab59b0ae)"><rect x="-12.225" width="146.7" fill="currentColor" y="-12.375" height="148.499995" fill-opacity="0.5"/></g></mask><clipPath id="55514c8d7d"><path d="M 0.253906 0.402344 L 23.875 0.402344 L 23.875 24.023438 L 0.253906 24.023438 Z M 0.253906 0.402344 " clip-rule="nonzero"/></clipPath><clipPath id="90fee4b709"><path d="M 12.0625 0.402344 C 5.542969 0.402344 0.253906 5.691406 0.253906 12.214844 C 0.253906 18.738281 5.542969 24.023438 12.0625 24.023438 C 18.585938 24.023438 23.875 18.738281 23.875 12.214844 C 23.875 5.691406 18.585938 0.402344 12.0625 0.402344 Z M 12.0625 0.402344 " clip-rule="nonzero"/></clipPath><clipPath id="0e40ad574e"><rect x="0" width="25" y="0" height="25"/></clipPath></defs><g mask="url(#239d1467e2)"><g transform="matrix(1, 0, 0, 1, 9, 11)"><g clip-path="url(#fdf8b82d72)"><g clip-path="url(#82165d81f5)"><g clip-path="url(#7b9e4ddec3)"><path fill="currentColor" d="M 0.234375 0.320312 L 102.894531 0.320312 L 102.894531 102.980469 L 0.234375 102.980469 Z M 0.234375 0.320312 " fill-opacity="1" fill-rule="nonzero"/></g></g></g></g></g><g clip-path="url(#aa9014b7e1)"><g mask="url(#395ad1caa7)"><g transform="matrix(1, 0, 0, 1, 48, -0.000000000000025702)"><g clip-path="url(#0709c6bfe4)"><g clip-path="url(#a035d67272)"><g clip-path="url(#91e9130b28)"><path fill="currentColor" d="M 0.753906 0.253906 L 24.375 0.253906 L 24.375 23.875 L 0.753906 23.875 Z M 0.753906 0.253906 " fill-opacity="1" fill-rule="nonzero"/></g></g></g></g></g></g><g mask="url(#83e18cf688)"><g transform="matrix(1, 0, 0, 1, 51, 99)"><g clip-path="url(#a7bd707d9f)"><g clip-path="url(#7086463f0f)"><g clip-path="url(#b25862e276)"><path fill="currentColor" d="M 0.6875 0.1875 L 24.308594 0.1875 L 24.308594 23.808594 L 0.6875 23.808594 Z M 0.6875 0.1875 " fill-opacity="1" fill-rule="nonzero"/></g></g></g></g></g><g clip-path="url(#738e951247)"><g mask="url(#78c4aa0ae0)"><g transform="matrix(1, 0, 0, 1, 97, 49)"><g clip-path="url(#b87a315955)"><g clip-path="url(#5767af9ac6)"><g clip-path="url(#e7320596cf)"><path fill="currentColor" d="M 0.847656 1.09375 L 24.46875 1.09375 L 24.46875 24.714844 L 0.847656 24.714844 Z M 0.847656 1.09375 " fill-opacity="1" fill-rule="nonzero"/></g></g></g></g></g></g><g mask="url(#7706d8fe04)"><g transform="matrix(1, 0, 0, 1, 0, 49)"><g clip-path="url(#1ab3652daf)"><g clip-path="url(#f7f4ca5004)"><g clip-path="url(#47321eef72)"><path fill="currentColor" d="M 0 1.09375 L 23.621094 1.09375 L 23.621094 24.714844 L 0 24.714844 Z M 0 1.09375 " fill-opacity="1" fill-rule="nonzero"/></g></g></g></g></g><g mask="url(#09e02f52e8)"><g transform="matrix(1, 0, 0, 1, 85, 12)"><g clip-path="url(#ad67659c39)"><g clip-path="url(#ea4ba7f820)"><g clip-path="url(#dcf40ec442)"><path fill="currentColor" d="M 1.035156 1.050781 L 24.65625 1.050781 L 24.65625 24.675781 L 1.035156 24.675781 Z M 1.035156 1.050781 " fill-opacity="1" fill-rule="nonzero"/></g></g></g></g></g><g mask="url(#7ce788f2a4)"><g transform="matrix(1, 0, 0, 1, 13, 12)"><g clip-path="url(#ad92397040)"><g clip-path="url(#179097cdac)"><g clip-path="url(#b6085dd819)"><path fill="currentColor" d="M 1.015625 1.050781 L 24.640625 1.050781 L 24.640625 24.675781 L 1.015625 24.675781 Z M 1.015625 1.050781 " fill-opacity="1" fill-rule="nonzero"/></g></g></g></g></g><g mask="url(#045c6e7e59)"><g transform="matrix(1, 0, 0, 1, 85, 86)"><g clip-path="url(#3b6d984715)"><g clip-path="url(#e58e642c39)"><g clip-path="url(#a2deb1818f)"><path fill="currentColor" d="M 1.035156 0.402344 L 24.65625 0.402344 L 24.65625 24.023438 L 1.035156 24.023438 Z M 1.035156 0.402344 " fill-opacity="1" fill-rule="nonzero"/></g></g></g></g></g><g mask="url(#88d47006b9)"><g transform="matrix(1, 0, 0, 1, 16, 86)"><g clip-path="url(#0e40ad574e)"><g clip-path="url(#55514c8d7d)"><g clip-path="url(#90fee4b709)"><path fill="currentColor" d="M 0.253906 0.402344 L 23.875 0.402344 L 23.875 24.023438 L 0.253906 24.023438 Z M 0.253906 0.402344 " fill-opacity="1" fill-rule="nonzero"/></g></g></g></g></g></svg>