<svg xmlns="http://www.w3.org/2000/svg" xmlns:xlink="http://www.w3.org/1999/xlink" width="124" zoomAndPan="magnify" viewBox="0 0 93 92.249997" height="123" preserveAspectRatio="xMidYMid meet" version="1.0"><defs><g/><clipPath id="fa11aea284"><path d="M 0.375 13.539062 L 76 13.539062 L 76 89 L 0.375 89 Z M 0.375 13.539062 " clip-rule="nonzero"/></clipPath><clipPath id="0b41a1cf92"><path d="M 0.375 13.539062 L 34 13.539062 L 34 31 L 0.375 31 Z M 0.375 13.539062 " clip-rule="nonzero"/></clipPath><clipPath id="c118f86b46"><path d="M 60 57 L 77.664062 57 L 77.664062 90.910156 L 60 90.910156 Z M 60 57 " clip-rule="nonzero"/></clipPath><clipPath id="8062e8809b"><path d="M 0.375 13.539062 L 77.664062 13.539062 L 77.664062 90.910156 L 0.375 90.910156 Z M 0.375 13.539062 " clip-rule="nonzero"/></clipPath></defs><g clip-path="url(#fa11aea284)"><path fill="#fbfbfb" d="M -1.996094 11.195312 L -1.996094 28.027344 L 14.835938 28.027344 C 14.839844 28.03125 58.652344 71.84375 58.652344 71.84375 C 58.652344 71.84375 58.652344 88.679688 58.652344 88.679688 L 75.488281 88.679688 L 75.488281 55.003906 L 31.675781 11.191406 C -6.191406 11.191406 -1.359375 11.195312 -1.996094 11.195312 Z M -1.996094 11.195312 " fill-opacity="1" fill-rule="nonzero"/></g><g clip-path="url(#0b41a1cf92)"><path fill="#fbfbfb" d="M 33.917969 13.433594 L 17.082031 30.269531 L 0.242188 30.269531 L 0.242188 13.433594 Z M 33.917969 13.433594 " fill-opacity="1" fill-rule="nonzero"/></g><g clip-path="url(#c118f86b46)"><path fill="#fbfbfb" d="M 77.730469 57.246094 L 60.894531 74.078125 L 60.894531 90.917969 L 77.730469 90.917969 Z M 77.730469 57.246094 " fill-opacity="1" fill-rule="nonzero"/></g><g clip-path="url(#8062e8809b)"><path fill="#f20009" d="M 33.917969 13.433594 L 0.242188 13.433594 C 28.164062 41.355469 51.730469 64.921875 77.730469 90.917969 L 77.730469 57.246094 Z M 33.917969 13.433594 " fill-opacity="1" fill-rule="nonzero"/></g><g fill="#ffffff" fill-opacity="1"><g transform="translate(22.818678, 23.066362)"><g><path d="M 0.515625 0.515625 L 5.5 -4.46875 L 6.46875 -3.5 L 2.328125 0.640625 L 4.859375 3.171875 L 4.015625 4.015625 Z M 0.515625 0.515625 "/></g></g></g><g fill="#ffffff" fill-opacity="1"><g transform="translate(26.913266, 27.160949)"><g><path d="M 0.4375 0.4375 L 4.109375 -3.234375 L 5.046875 -2.296875 L 1.375 1.375 Z M 4.625 -3.75 L 5.5625 -4.6875 L 6.5 -3.75 L 5.5625 -2.8125 Z M 4.625 -3.75 "/></g></g></g><g fill="#ffffff" fill-opacity="1"><g transform="translate(28.701145, 28.948829)"><g><path d="M 1.421875 1.421875 L 3.734375 -3.609375 L 4.703125 -2.640625 L 2.8125 1.125 L 6.5625 -0.78125 L 7.46875 0.125 L 2.4375 2.4375 Z M 1.421875 1.421875 "/></g></g></g><g fill="#ffffff" fill-opacity="1"><g transform="translate(32.557349, 32.805032)"><g><path d="M 2.0625 2.1875 C 1.769531 1.894531 1.550781 1.578125 1.40625 1.234375 C 1.269531 0.898438 1.207031 0.5625 1.21875 0.21875 C 1.226562 -0.125 1.300781 -0.453125 1.4375 -0.765625 C 1.570312 -1.078125 1.765625 -1.359375 2.015625 -1.609375 C 2.367188 -1.960938 2.765625 -2.207031 3.203125 -2.34375 C 3.648438 -2.488281 4.109375 -2.5 4.578125 -2.375 C 5.046875 -2.25 5.476562 -1.988281 5.875 -1.59375 C 6.269531 -1.195312 6.523438 -0.765625 6.640625 -0.296875 C 6.765625 0.160156 6.757812 0.609375 6.625 1.046875 C 6.488281 1.484375 6.253906 1.867188 5.921875 2.203125 C 5.859375 2.265625 5.796875 2.320312 5.734375 2.375 C 5.671875 2.425781 5.613281 2.46875 5.5625 2.5 L 2.71875 -0.34375 C 2.5625 -0.144531 2.457031 0.0664062 2.40625 0.296875 C 2.351562 0.523438 2.363281 0.75 2.4375 0.96875 C 2.507812 1.1875 2.628906 1.378906 2.796875 1.546875 C 2.984375 1.734375 3.203125 1.863281 3.453125 1.9375 C 3.710938 2.019531 3.941406 2.015625 4.140625 1.921875 L 4.734375 2.953125 C 4.460938 3.054688 4.171875 3.097656 3.859375 3.078125 C 3.546875 3.054688 3.238281 2.972656 2.9375 2.828125 C 2.632812 2.679688 2.34375 2.46875 2.0625 2.1875 Z M 3.296875 -0.953125 L 5.21875 0.96875 C 5.382812 0.757812 5.492188 0.539062 5.546875 0.3125 C 5.609375 0.09375 5.609375 -0.125 5.546875 -0.34375 C 5.484375 -0.5625 5.363281 -0.757812 5.1875 -0.9375 C 5.019531 -1.101562 4.828125 -1.21875 4.609375 -1.28125 C 4.390625 -1.34375 4.164062 -1.34375 3.9375 -1.28125 C 3.71875 -1.226562 3.503906 -1.117188 3.296875 -0.953125 Z M 3.296875 -0.953125 "/></g></g></g><g fill="#ffffff" fill-opacity="1"><g transform="translate(36.757105, 37.004789)"><g/></g></g><g fill="#ffffff" fill-opacity="1"><g transform="translate(38.439816, 38.687499)"><g><path d="M 5.8125 3.25 C 5.53125 3.53125 5.222656 3.691406 4.890625 3.734375 C 4.554688 3.773438 4.21875 3.722656 3.875 3.578125 C 3.53125 3.429688 3.210938 3.210938 2.921875 2.921875 L 0.515625 0.515625 L 5.5 -4.46875 L 8.171875 -1.796875 C 8.398438 -1.566406 8.535156 -1.300781 8.578125 -1 C 8.628906 -0.707031 8.597656 -0.414062 8.484375 -0.125 C 8.378906 0.15625 8.226562 0.394531 8.03125 0.59375 C 7.789062 0.832031 7.5 1 7.15625 1.09375 C 6.820312 1.195312 6.488281 1.1875 6.15625 1.0625 C 6.363281 1.414062 6.4375 1.785156 6.375 2.171875 C 6.320312 2.566406 6.132812 2.925781 5.8125 3.25 Z M 5.03125 2.09375 C 5.15625 1.96875 5.238281 1.828125 5.28125 1.671875 C 5.332031 1.523438 5.34375 1.378906 5.3125 1.234375 C 5.28125 1.085938 5.207031 0.957031 5.09375 0.84375 L 3.609375 -0.640625 L 2.296875 0.671875 L 3.734375 2.109375 C 3.859375 2.234375 4 2.3125 4.15625 2.34375 C 4.3125 2.375 4.46875 2.367188 4.625 2.328125 C 4.78125 2.285156 4.914062 2.207031 5.03125 2.09375 Z M 5.640625 -2.671875 L 4.375 -1.40625 L 5.65625 -0.125 C 5.769531 -0.0078125 5.894531 0.0625 6.03125 0.09375 C 6.175781 0.132812 6.328125 0.132812 6.484375 0.09375 C 6.640625 0.0507812 6.78125 -0.03125 6.90625 -0.15625 C 7.03125 -0.28125 7.113281 -0.414062 7.15625 -0.5625 C 7.195312 -0.707031 7.203125 -0.847656 7.171875 -0.984375 C 7.140625 -1.117188 7.070312 -1.238281 6.96875 -1.34375 Z M 5.640625 -2.671875 "/></g></g></g><g fill="#ffffff" fill-opacity="1"><g transform="translate(43.207486, 43.455169)"><g><path d="M 2.0625 2.1875 C 1.757812 1.882812 1.539062 1.566406 1.40625 1.234375 C 1.269531 0.898438 1.207031 0.5625 1.21875 0.21875 C 1.226562 -0.125 1.300781 -0.453125 1.4375 -0.765625 C 1.582031 -1.085938 1.78125 -1.375 2.03125 -1.625 C 2.289062 -1.882812 2.578125 -2.082031 2.890625 -2.21875 C 3.210938 -2.363281 3.546875 -2.441406 3.890625 -2.453125 C 4.234375 -2.460938 4.570312 -2.398438 4.90625 -2.265625 C 5.238281 -2.128906 5.554688 -1.910156 5.859375 -1.609375 C 6.160156 -1.304688 6.378906 -0.988281 6.515625 -0.65625 C 6.648438 -0.320312 6.710938 0.015625 6.703125 0.359375 C 6.703125 0.710938 6.628906 1.046875 6.484375 1.359375 C 6.335938 1.671875 6.132812 1.957031 5.875 2.21875 C 5.625 2.46875 5.34375 2.664062 5.03125 2.8125 C 4.71875 2.957031 4.390625 3.035156 4.046875 3.046875 C 3.703125 3.054688 3.359375 2.988281 3.015625 2.84375 C 2.679688 2.707031 2.363281 2.488281 2.0625 2.1875 Z M 2.984375 -0.671875 C 2.773438 -0.460938 2.628906 -0.226562 2.546875 0.03125 C 2.460938 0.289062 2.445312 0.535156 2.5 0.765625 C 2.5625 1.003906 2.679688 1.210938 2.859375 1.390625 C 3.035156 1.566406 3.242188 1.679688 3.484375 1.734375 C 3.722656 1.785156 3.96875 1.769531 4.21875 1.6875 C 4.46875 1.601562 4.695312 1.457031 4.90625 1.25 C 5.125 1.03125 5.273438 0.796875 5.359375 0.546875 C 5.441406 0.296875 5.457031 0.0507812 5.40625 -0.1875 C 5.351562 -0.425781 5.238281 -0.632812 5.0625 -0.8125 C 4.882812 -0.988281 4.675781 -1.101562 4.4375 -1.15625 C 4.195312 -1.207031 3.945312 -1.191406 3.6875 -1.109375 C 3.4375 -1.035156 3.203125 -0.890625 2.984375 -0.671875 Z M 2.984375 -0.671875 "/></g></g></g><g fill="#ffffff" fill-opacity="1"><g transform="translate(47.456319, 47.704002)"><g><path d="M 2.0625 2.1875 C 1.757812 1.882812 1.539062 1.566406 1.40625 1.234375 C 1.269531 0.898438 1.207031 0.5625 1.21875 0.21875 C 1.226562 -0.125 1.300781 -0.453125 1.4375 -0.765625 C 1.582031 -1.085938 1.78125 -1.375 2.03125 -1.625 C 2.289062 -1.882812 2.578125 -2.082031 2.890625 -2.21875 C 3.210938 -2.363281 3.546875 -2.441406 3.890625 -2.453125 C 4.234375 -2.460938 4.570312 -2.398438 4.90625 -2.265625 C 5.238281 -2.128906 5.554688 -1.910156 5.859375 -1.609375 C 6.160156 -1.304688 6.378906 -0.988281 6.515625 -0.65625 C 6.648438 -0.320312 6.710938 0.015625 6.703125 0.359375 C 6.703125 0.710938 6.628906 1.046875 6.484375 1.359375 C 6.335938 1.671875 6.132812 1.957031 5.875 2.21875 C 5.625 2.46875 5.34375 2.664062 5.03125 2.8125 C 4.71875 2.957031 4.390625 3.035156 4.046875 3.046875 C 3.703125 3.054688 3.359375 2.988281 3.015625 2.84375 C 2.679688 2.707031 2.363281 2.488281 2.0625 2.1875 Z M 2.984375 -0.671875 C 2.773438 -0.460938 2.628906 -0.226562 2.546875 0.03125 C 2.460938 0.289062 2.445312 0.535156 2.5 0.765625 C 2.5625 1.003906 2.679688 1.210938 2.859375 1.390625 C 3.035156 1.566406 3.242188 1.679688 3.484375 1.734375 C 3.722656 1.785156 3.96875 1.769531 4.21875 1.6875 C 4.46875 1.601562 4.695312 1.457031 4.90625 1.25 C 5.125 1.03125 5.273438 0.796875 5.359375 0.546875 C 5.441406 0.296875 5.457031 0.0507812 5.40625 -0.1875 C 5.351562 -0.425781 5.238281 -0.632812 5.0625 -0.8125 C 4.882812 -0.988281 4.675781 -1.101562 4.4375 -1.15625 C 4.195312 -1.207031 3.945312 -1.191406 3.6875 -1.109375 C 3.4375 -1.035156 3.203125 -0.890625 2.984375 -0.671875 Z M 2.984375 -0.671875 "/></g></g></g><g fill="#ffffff" fill-opacity="1"><g transform="translate(51.705152, 51.952835)"><g><path d="M 2.9375 2.9375 L 3.453125 0.265625 L 2.46875 0.28125 L 1.375 1.375 L 0.4375 0.4375 L 5.5625 -4.6875 L 6.5 -3.75 L 3.390625 -0.640625 L 6.515625 -0.828125 L 7.515625 0.171875 L 4.578125 0.359375 L 3.9375 3.9375 Z M 2.9375 2.9375 "/></g></g></g><g fill="#ffffff" fill-opacity="1"><g transform="translate(55.617448, 55.865131)"><g><path d="M 0.4375 0.4375 L 4.109375 -3.234375 L 5.046875 -2.296875 L 1.375 1.375 Z M 4.625 -3.75 L 5.5625 -4.6875 L 6.5 -3.75 L 5.5625 -2.8125 Z M 4.625 -3.75 "/></g></g></g><g fill="#ffffff" fill-opacity="1"><g transform="translate(57.405327, 57.653011)"><g><path d="M 3.84375 3.84375 L 2.90625 2.90625 L 4.96875 0.84375 C 5.269531 0.539062 5.4375 0.269531 5.46875 0.03125 C 5.5 -0.207031 5.421875 -0.421875 5.234375 -0.609375 C 5.109375 -0.734375 4.945312 -0.820312 4.75 -0.875 C 4.5625 -0.9375 4.359375 -0.960938 4.140625 -0.953125 C 3.921875 -0.941406 3.710938 -0.878906 3.515625 -0.765625 L 1.375 1.375 L 0.4375 0.4375 L 4.109375 -3.234375 L 4.953125 -2.390625 L 4.28125 -1.71875 C 4.53125 -1.78125 4.78125 -1.789062 5.03125 -1.75 C 5.289062 -1.71875 5.539062 -1.632812 5.78125 -1.5 C 6.03125 -1.375 6.257812 -1.207031 6.46875 -1 C 6.695312 -0.769531 6.84375 -0.535156 6.90625 -0.296875 C 6.976562 -0.0664062 6.984375 0.148438 6.921875 0.359375 C 6.859375 0.566406 6.753906 0.769531 6.609375 0.96875 C 6.472656 1.175781 6.316406 1.367188 6.140625 1.546875 Z M 3.84375 3.84375 "/></g></g></g><g fill="#ffffff" fill-opacity="1"><g transform="translate(61.640137, 61.887821)"><g><path d="M 1.84375 1.875 C 1.601562 1.632812 1.425781 1.363281 1.3125 1.0625 C 1.207031 0.769531 1.164062 0.460938 1.1875 0.140625 C 1.21875 -0.171875 1.300781 -0.476562 1.4375 -0.78125 C 1.582031 -1.09375 1.78125 -1.375 2.03125 -1.625 C 2.3125 -1.90625 2.609375 -2.113281 2.921875 -2.25 C 3.234375 -2.382812 3.550781 -2.460938 3.875 -2.484375 C 4.207031 -2.515625 4.523438 -2.472656 4.828125 -2.359375 C 5.128906 -2.242188 5.40625 -2.0625 5.65625 -1.8125 C 5.945312 -1.519531 6.132812 -1.203125 6.21875 -0.859375 C 6.3125 -0.523438 6.316406 -0.179688 6.234375 0.171875 L 6.875 -0.46875 L 7.6875 0.34375 L 4.1875 3.84375 C 3.820312 4.207031 3.421875 4.429688 2.984375 4.515625 C 2.554688 4.609375 2.117188 4.566406 1.671875 4.390625 C 1.234375 4.222656 0.816406 3.941406 0.421875 3.546875 C 0.0234375 3.148438 -0.238281 2.742188 -0.375 2.328125 C -0.519531 1.921875 -0.570312 1.5 -0.53125 1.0625 L 0.46875 1.0625 C 0.445312 1.394531 0.492188 1.710938 0.609375 2.015625 C 0.722656 2.316406 0.898438 2.585938 1.140625 2.828125 C 1.335938 3.023438 1.550781 3.171875 1.78125 3.265625 C 2.019531 3.367188 2.265625 3.394531 2.515625 3.34375 C 2.765625 3.289062 3.007812 3.144531 3.25 2.90625 L 3.71875 2.4375 C 3.394531 2.53125 3.066406 2.523438 2.734375 2.421875 C 2.398438 2.316406 2.101562 2.132812 1.84375 1.875 Z M 2.90625 1.4375 C 3.007812 1.539062 3.125 1.625 3.25 1.6875 C 3.382812 1.757812 3.515625 1.800781 3.640625 1.8125 C 3.773438 1.832031 3.910156 1.835938 4.046875 1.828125 C 4.179688 1.816406 4.304688 1.785156 4.421875 1.734375 L 5.296875 0.859375 C 5.390625 0.660156 5.441406 0.457031 5.453125 0.25 C 5.460938 0.0390625 5.429688 -0.148438 5.359375 -0.328125 C 5.296875 -0.515625 5.195312 -0.675781 5.0625 -0.8125 C 4.914062 -0.957031 4.753906 -1.054688 4.578125 -1.109375 C 4.410156 -1.171875 4.226562 -1.191406 4.03125 -1.171875 C 3.832031 -1.148438 3.644531 -1.09375 3.46875 -1 C 3.289062 -0.90625 3.128906 -0.785156 2.984375 -0.640625 C 2.835938 -0.492188 2.722656 -0.328125 2.640625 -0.140625 C 2.554688 0.046875 2.507812 0.234375 2.5 0.421875 C 2.5 0.617188 2.53125 0.800781 2.59375 0.96875 C 2.664062 1.144531 2.769531 1.300781 2.90625 1.4375 Z M 2.90625 1.4375 "/></g></g></g><g fill="#ffffff" fill-opacity="1"><g transform="translate(66.085285, 66.332968)"><g><path d="M 1.71875 1.84375 C 1.40625 1.53125 1.15625 1.175781 0.96875 0.78125 C 0.789062 0.394531 0.695312 0 0.6875 -0.40625 L 1.640625 -0.671875 C 1.679688 -0.273438 1.765625 0.0703125 1.890625 0.375 C 2.015625 0.675781 2.175781 0.925781 2.375 1.125 C 2.550781 1.300781 2.726562 1.410156 2.90625 1.453125 C 3.09375 1.503906 3.253906 1.460938 3.390625 1.328125 C 3.472656 1.242188 3.503906 1.144531 3.484375 1.03125 C 3.472656 0.925781 3.429688 0.796875 3.359375 0.640625 C 3.285156 0.484375 3.1875 0.300781 3.0625 0.09375 C 2.882812 -0.269531 2.742188 -0.582031 2.640625 -0.84375 C 2.546875 -1.113281 2.515625 -1.351562 2.546875 -1.5625 C 2.585938 -1.78125 2.710938 -1.992188 2.921875 -2.203125 C 3.160156 -2.441406 3.425781 -2.585938 3.71875 -2.640625 C 4.019531 -2.703125 4.332031 -2.671875 4.65625 -2.546875 C 4.976562 -2.421875 5.285156 -2.210938 5.578125 -1.921875 C 5.847656 -1.648438 6.054688 -1.359375 6.203125 -1.046875 C 6.347656 -0.734375 6.425781 -0.382812 6.4375 0 L 5.46875 0.21875 C 5.425781 -0.113281 5.351562 -0.394531 5.25 -0.625 C 5.15625 -0.863281 5.019531 -1.070312 4.84375 -1.25 C 4.738281 -1.351562 4.632812 -1.4375 4.53125 -1.5 C 4.425781 -1.5625 4.316406 -1.59375 4.203125 -1.59375 C 4.085938 -1.59375 3.984375 -1.546875 3.890625 -1.453125 C 3.804688 -1.367188 3.765625 -1.273438 3.765625 -1.171875 C 3.765625 -1.066406 3.796875 -0.945312 3.859375 -0.8125 C 3.921875 -0.675781 4 -0.507812 4.09375 -0.3125 C 4.3125 0.0507812 4.476562 0.382812 4.59375 0.6875 C 4.707031 0.988281 4.753906 1.253906 4.734375 1.484375 C 4.710938 1.710938 4.585938 1.941406 4.359375 2.171875 C 3.992188 2.535156 3.570312 2.679688 3.09375 2.609375 C 2.625 2.546875 2.164062 2.289062 1.71875 1.84375 Z M 1.71875 1.84375 "/></g></g></g></svg>