<svg xmlns="http://www.w3.org/2000/svg" xmlns:xlink="http://www.w3.org/1999/xlink" width="260" zoomAndPan="magnify" viewBox="0 0 194.87999 127.500001" height="170" preserveAspectRatio="xMidYMid meet" version="1.0"><defs><filter x="0%" y="0%" width="100%" height="100%" id="14151dbadd"><feColorMatrix values="0 0 0 0 1 0 0 0 0 1 0 0 0 0 1 0 0 0 1 0" color-interpolation-filters="sRGB"/></filter><mask id="bb19d11fd7"><g filter="url(#14151dbadd)"><rect x="-19.487999" width="233.855988" fill="currentColor" y="-12.75" height="153.000001" fill-opacity="0.5"/></g></mask><clipPath id="feffd16251"><path d="M 0.574219 0.835938 L 173.796875 0.835938 L 173.796875 103.726562 L 0.574219 103.726562 Z M 0.574219 0.835938 " clip-rule="nonzero"/></clipPath><clipPath id="b849c7d570"><path d="M 17.757812 0.835938 L 156.285156 0.835938 C 160.839844 0.835938 165.210938 2.648438 168.433594 5.871094 C 171.65625 9.09375 173.464844 13.464844 173.464844 18.019531 L 173.464844 86.542969 C 173.464844 91.101562 171.65625 95.46875 168.433594 98.691406 C 165.210938 101.914062 160.839844 103.726562 156.285156 103.726562 L 17.757812 103.726562 C 13.199219 103.726562 8.828125 101.914062 5.605469 98.691406 C 2.382812 95.46875 0.574219 91.101562 0.574219 86.542969 L 0.574219 18.019531 C 0.574219 13.464844 2.382812 9.09375 5.605469 5.871094 C 8.828125 2.648438 13.199219 0.835938 17.757812 0.835938 Z M 17.757812 0.835938 " clip-rule="nonzero"/></clipPath><clipPath id="a13b9cffda"><rect x="0" width="174" y="0" height="104"/></clipPath><mask id="2b8aa2d019"><g filter="url(#14151dbadd)"><rect x="-19.487999" width="233.855988" fill="currentColor" y="-12.75" height="153.000001" fill-opacity="0.5"/></g></mask><clipPath id="74fbc03395"><path d="M 0.777344 0.394531 L 24.453125 0.394531 L 24.453125 24.070312 L 0.777344 24.070312 Z M 0.777344 0.394531 " clip-rule="nonzero"/></clipPath><clipPath id="f7a0bd3f02"><path d="M 12.617188 0.394531 C 6.078125 0.394531 0.777344 5.695312 0.777344 12.230469 C 0.777344 18.769531 6.078125 24.070312 12.617188 24.070312 C 19.152344 24.070312 24.453125 18.769531 24.453125 12.230469 C 24.453125 5.695312 19.152344 0.394531 12.617188 0.394531 Z M 12.617188 0.394531 " clip-rule="nonzero"/></clipPath><clipPath id="cf24e3343e"><rect x="0" width="25" y="0" height="25"/></clipPath><mask id="b887c86da5"><g filter="url(#14151dbadd)"><rect x="-19.487999" width="233.855988" fill="currentColor" y="-12.75" height="153.000001" fill-opacity="0.5"/></g></mask><clipPath id="31af476c9d"><path d="M 0.945312 0.886719 L 24.621094 0.886719 L 24.621094 24.5625 L 0.945312 24.5625 Z M 0.945312 0.886719 " clip-rule="nonzero"/></clipPath><clipPath id="4ea19ee837"><path d="M 12.785156 0.886719 C 6.246094 0.886719 0.945312 6.1875 0.945312 12.726562 C 0.945312 19.261719 6.246094 24.5625 12.785156 24.5625 C 19.320312 24.5625 24.621094 19.261719 24.621094 12.726562 C 24.621094 6.1875 19.320312 0.886719 12.785156 0.886719 Z M 12.785156 0.886719 " clip-rule="nonzero"/></clipPath><clipPath id="39ba9f22e2"><rect x="0" width="25" y="0" height="25"/></clipPath><clipPath id="e06bb9856f"><path d="M 170 30 L 194.441406 30 L 194.441406 55 L 170 55 Z M 170 30 " clip-rule="nonzero"/></clipPath><mask id="ede03a2548"><g filter="url(#14151dbadd)"><rect x="-19.487999" width="233.855988" fill="currentColor" y="-12.75" height="153.000001" fill-opacity="0.5"/></g></mask><clipPath id="d9e24b6f33"><path d="M 0.628906 0.199219 L 24.304688 0.199219 L 24.304688 23.875 L 0.628906 23.875 Z M 0.628906 0.199219 " clip-rule="nonzero"/></clipPath><clipPath id="bf7d207234"><path d="M 12.464844 0.199219 C 5.929688 0.199219 0.628906 5.5 0.628906 12.035156 C 0.628906 18.574219 5.929688 23.875 12.464844 23.875 C 19.003906 23.875 24.304688 18.574219 24.304688 12.035156 C 24.304688 5.5 19.003906 0.199219 12.464844 0.199219 Z M 12.464844 0.199219 " clip-rule="nonzero"/></clipPath><clipPath id="75286b2231"><rect x="0" width="25" y="0" height="25"/></clipPath><mask id="5b8360d64b"><g filter="url(#14151dbadd)"><rect x="-19.487999" width="233.855988" fill="currentColor" y="-12.75" height="153.000001" fill-opacity="0.5"/></g></mask><clipPath id="b12d16292f"><path d="M 0.929688 1.007812 L 24.605469 1.007812 L 24.605469 24.683594 L 0.929688 24.683594 Z M 0.929688 1.007812 " clip-rule="nonzero"/></clipPath><clipPath id="4620d847e4"><path d="M 12.769531 1.007812 C 6.230469 1.007812 0.929688 6.308594 0.929688 12.84375 C 0.929688 19.382812 6.230469 24.683594 12.769531 24.683594 C 19.308594 24.683594 24.605469 19.382812 24.605469 12.84375 C 24.605469 6.308594 19.308594 1.007812 12.769531 1.007812 Z M 12.769531 1.007812 " clip-rule="nonzero"/></clipPath><clipPath id="0ad4c39973"><rect x="0" width="25" y="0" height="25"/></clipPath><clipPath id="21f63c8eba"><path d="M 0.320312 31 L 25 31 L 25 55 L 0.320312 55 Z M 0.320312 31 " clip-rule="nonzero"/></clipPath><mask id="2a15d87b42"><g filter="url(#14151dbadd)"><rect x="-19.487999" width="233.855988" fill="currentColor" y="-12.75" height="153.000001" fill-opacity="0.5"/></g></mask><clipPath id="c10204b2c3"><path d="M 0.320312 0.253906 L 23.996094 0.253906 L 23.996094 23.925781 L 0.320312 23.925781 Z M 0.320312 0.253906 " clip-rule="nonzero"/></clipPath><clipPath id="9339d17036"><path d="M 12.160156 0.253906 C 5.621094 0.253906 0.320312 5.550781 0.320312 12.089844 C 0.320312 18.628906 5.621094 23.925781 12.160156 23.925781 C 18.695312 23.925781 23.996094 18.628906 23.996094 12.089844 C 23.996094 5.550781 18.695312 0.253906 12.160156 0.253906 Z M 12.160156 0.253906 " clip-rule="nonzero"/></clipPath><clipPath id="557b7fabb8"><rect x="0" width="25" y="0" height="24"/></clipPath><clipPath id="770ae37e57"><path d="M 0.320312 68 L 25 68 L 25 93 L 0.320312 93 Z M 0.320312 68 " clip-rule="nonzero"/></clipPath><mask id="dfa096b6dc"><g filter="url(#14151dbadd)"><rect x="-19.487999" width="233.855988" fill="currentColor" y="-12.75" height="153.000001" fill-opacity="0.5"/></g></mask><clipPath id="75536f9102"><path d="M 0.320312 1.0625 L 23.996094 1.0625 L 23.996094 24.738281 L 0.320312 24.738281 Z M 0.320312 1.0625 " clip-rule="nonzero"/></clipPath><clipPath id="e812c6d541"><path d="M 12.160156 1.0625 C 5.621094 1.0625 0.320312 6.363281 0.320312 12.898438 C 0.320312 19.4375 5.621094 24.738281 12.160156 24.738281 C 18.695312 24.738281 23.996094 19.4375 23.996094 12.898438 C 23.996094 6.363281 18.695312 1.0625 12.160156 1.0625 Z M 12.160156 1.0625 " clip-rule="nonzero"/></clipPath><clipPath id="0afbafe101"><rect x="0" width="25" y="0" height="25"/></clipPath><mask id="92e019f69f"><g filter="url(#14151dbadd)"><rect x="-19.487999" width="233.855988" fill="currentColor" y="-12.75" height="153.000001" fill-opacity="0.5"/></g></mask><clipPath id="280a04d011"><path d="M 0.117188 0.886719 L 23.792969 0.886719 L 23.792969 24.5625 L 0.117188 24.5625 Z M 0.117188 0.886719 " clip-rule="nonzero"/></clipPath><clipPath id="a358a5c32e"><path d="M 11.953125 0.886719 C 5.417969 0.886719 0.117188 6.1875 0.117188 12.726562 C 0.117188 19.261719 5.417969 24.5625 11.953125 24.5625 C 18.492188 24.5625 23.792969 19.261719 23.792969 12.726562 C 23.792969 6.1875 18.492188 0.886719 11.953125 0.886719 Z M 11.953125 0.886719 " clip-rule="nonzero"/></clipPath><clipPath id="c76f11ea1a"><rect x="0" width="24" y="0" height="25"/></clipPath><mask id="c0f86fc396"><g filter="url(#14151dbadd)"><rect x="-19.487999" width="233.855988" fill="currentColor" y="-12.75" height="153.000001" fill-opacity="0.5"/></g></mask><clipPath id="a62a02292e"><path d="M 0.585938 0.394531 L 24.261719 0.394531 L 24.261719 24.070312 L 0.585938 24.070312 Z M 0.585938 0.394531 " clip-rule="nonzero"/></clipPath><clipPath id="af8fc31987"><path d="M 12.425781 0.394531 C 5.886719 0.394531 0.585938 5.695312 0.585938 12.230469 C 0.585938 18.769531 5.886719 24.070312 12.425781 24.070312 C 18.960938 24.070312 24.261719 18.769531 24.261719 12.230469 C 24.261719 5.695312 18.960938 0.394531 12.425781 0.394531 Z M 12.425781 0.394531 " clip-rule="nonzero"/></clipPath><clipPath id="e18b4f5354"><rect x="0" width="25" y="0" height="25"/></clipPath><mask id="10744765a2"><g filter="url(#14151dbadd)"><rect x="-19.487999" width="233.855988" fill="currentColor" y="-12.75" height="153.000001" fill-opacity="0.5"/></g></mask><clipPath id="afde60a695"><path d="M 0.996094 0.875 L 24.671875 0.875 L 24.671875 24.550781 L 0.996094 24.550781 Z M 0.996094 0.875 " clip-rule="nonzero"/></clipPath><clipPath id="e86cf03974"><path d="M 12.832031 0.875 C 6.296875 0.875 0.996094 6.175781 0.996094 12.714844 C 0.996094 19.25 6.296875 24.550781 12.832031 24.550781 C 19.371094 24.550781 24.671875 19.25 24.671875 12.714844 C 24.671875 6.175781 19.371094 0.875 12.832031 0.875 Z M 12.832031 0.875 " clip-rule="nonzero"/></clipPath><clipPath id="e7a12ab600"><rect x="0" width="25" y="0" height="25"/></clipPath><mask id="83c9275c5c"><g filter="url(#14151dbadd)"><rect x="-19.487999" width="233.855988" fill="currentColor" y="-12.75" height="153.000001" fill-opacity="0.5"/></g></mask><clipPath id="187b9e40c3"><path d="M 1.164062 0 L 24.839844 0 L 24.839844 23.675781 L 1.164062 23.675781 Z M 1.164062 0 " clip-rule="nonzero"/></clipPath><clipPath id="800f823441"><path d="M 13.003906 0 C 6.464844 0 1.164062 5.300781 1.164062 11.835938 C 1.164062 18.375 6.464844 23.675781 13.003906 23.675781 C 19.539062 23.675781 24.839844 18.375 24.839844 11.835938 C 24.839844 5.300781 19.539062 0 13.003906 0 Z M 13.003906 0 " clip-rule="nonzero"/></clipPath><clipPath id="a39c11016c"><rect x="0" width="25" y="0" height="24"/></clipPath><mask id="1151e900a1"><g filter="url(#14151dbadd)"><rect x="-19.487999" width="233.855988" fill="currentColor" y="-12.75" height="153.000001" fill-opacity="0.5"/></g></mask><clipPath id="e53ce69efa"><path d="M 0.332031 0 L 24.007812 0 L 24.007812 23.675781 L 0.332031 23.675781 Z M 0.332031 0 " clip-rule="nonzero"/></clipPath><clipPath id="bcd32079db"><path d="M 12.171875 0 C 5.632812 0 0.332031 5.300781 0.332031 11.835938 C 0.332031 18.375 5.632812 23.675781 12.171875 23.675781 C 18.707031 23.675781 24.007812 18.375 24.007812 11.835938 C 24.007812 5.300781 18.707031 0 12.171875 0 Z M 12.171875 0 " clip-rule="nonzero"/></clipPath><clipPath id="037ccb10db"><rect x="0" width="25" y="0" height="24"/></clipPath><mask id="86a85c50ec"><g filter="url(#14151dbadd)"><rect x="-19.487999" width="233.855988" fill="currentColor" y="-12.75" height="153.000001" fill-opacity="0.5"/></g></mask><clipPath id="c70228c882"><path d="M 0.804688 0 L 24.480469 0 L 24.480469 23.675781 L 0.804688 23.675781 Z M 0.804688 0 " clip-rule="nonzero"/></clipPath><clipPath id="be79543dbd"><path d="M 12.644531 0 C 6.105469 0 0.804688 5.300781 0.804688 11.835938 C 0.804688 18.375 6.105469 23.675781 12.644531 23.675781 C 19.179688 23.675781 24.480469 18.375 24.480469 11.835938 C 24.480469 5.300781 19.179688 0 12.644531 0 Z M 12.644531 0 " clip-rule="nonzero"/></clipPath><clipPath id="1925cc0b2c"><rect x="0" width="25" y="0" height="24"/></clipPath></defs><g mask="url(#bb19d11fd7)"><g transform="matrix(1, 0, 0, 1, 9, 11)"><g clip-path="url(#a13b9cffda)"><g clip-path="url(#feffd16251)"><g clip-path="url(#b849c7d570)"><path fill="currentColor" d="M 0.574219 0.835938 L 173.394531 0.835938 L 173.394531 103.726562 L 0.574219 103.726562 Z M 0.574219 0.835938 " fill-opacity="1" fill-rule="nonzero"/></g></g></g></g></g><g mask="url(#2b8aa2d019)"><g transform="matrix(1, 0, 0, 1, 25, 101)"><g clip-path="url(#cf24e3343e)"><g clip-path="url(#74fbc03395)"><g clip-path="url(#f7a0bd3f02)"><path fill="currentColor" d="M 0.777344 0.394531 L 24.453125 0.394531 L 24.453125 24.070312 L 0.777344 24.070312 Z M 0.777344 0.394531 " fill-opacity="1" fill-rule="nonzero"/></g></g></g></g></g><g mask="url(#b887c86da5)"><g transform="matrix(1, 0, 0, 1, 64, 102)"><g clip-path="url(#39ba9f22e2)"><g clip-path="url(#31af476c9d)"><g clip-path="url(#4ea19ee837)"><path fill="currentColor" d="M 0.945312 0.886719 L 24.621094 0.886719 L 24.621094 24.5625 L 0.945312 24.5625 Z M 0.945312 0.886719 " fill-opacity="1" fill-rule="nonzero"/></g></g></g></g></g><g clip-path="url(#e06bb9856f)"><g mask="url(#ede03a2548)"><g transform="matrix(1, 0, 0, 1, 170, 30)"><g clip-path="url(#75286b2231)"><g clip-path="url(#d9e24b6f33)"><g clip-path="url(#bf7d207234)"><path fill="currentColor" d="M 0.628906 0.199219 L 24.304688 0.199219 L 24.304688 23.875 L 0.628906 23.875 Z M 0.628906 0.199219 " fill-opacity="1" fill-rule="nonzero"/></g></g></g></g></g></g><g mask="url(#5b8360d64b)"><g transform="matrix(1, 0, 0, 1, 168, 67)"><g clip-path="url(#0ad4c39973)"><g clip-path="url(#b12d16292f)"><g clip-path="url(#4620d847e4)"><path fill="currentColor" d="M 0.929688 1.007812 L 24.605469 1.007812 L 24.605469 24.683594 L 0.929688 24.683594 Z M 0.929688 1.007812 " fill-opacity="1" fill-rule="nonzero"/></g></g></g></g></g><g clip-path="url(#21f63c8eba)"><g mask="url(#2a15d87b42)"><g transform="matrix(1, 0, 0, 1, 0, 31)"><g clip-path="url(#557b7fabb8)"><g clip-path="url(#c10204b2c3)"><g clip-path="url(#9339d17036)"><path fill="currentColor" d="M 0.320312 0.253906 L 23.996094 0.253906 L 23.996094 23.925781 L 0.320312 23.925781 Z M 0.320312 0.253906 " fill-opacity="1" fill-rule="nonzero"/></g></g></g></g></g></g><g clip-path="url(#770ae37e57)"><g mask="url(#dfa096b6dc)"><g transform="matrix(1, 0, 0, 1, 0, 68)"><g clip-path="url(#0afbafe101)"><g clip-path="url(#75536f9102)"><g clip-path="url(#e812c6d541)"><path fill="currentColor" d="M 0.320312 1.0625 L 23.996094 1.0625 L 23.996094 24.738281 L 0.320312 24.738281 Z M 0.320312 1.0625 " fill-opacity="1" fill-rule="nonzero"/></g></g></g></g></g></g><g mask="url(#92e019f69f)"><g transform="matrix(1, 0, 0, 1, 104, 102)"><g clip-path="url(#c76f11ea1a)"><g clip-path="url(#280a04d011)"><g clip-path="url(#a358a5c32e)"><path fill="currentColor" d="M 0.117188 0.886719 L 23.792969 0.886719 L 23.792969 24.5625 L 0.117188 24.5625 Z M 0.117188 0.886719 " fill-opacity="1" fill-rule="nonzero"/></g></g></g></g></g><g mask="url(#c0f86fc396)"><g transform="matrix(1, 0, 0, 1, 142, 101)"><g clip-path="url(#e18b4f5354)"><g clip-path="url(#a62a02292e)"><g clip-path="url(#af8fc31987)"><path fill="currentColor" d="M 0.585938 0.394531 L 24.261719 0.394531 L 24.261719 24.070312 L 0.585938 24.070312 Z M 0.585938 0.394531 " fill-opacity="1" fill-rule="nonzero"/></g></g></g></g></g><g mask="url(#10744765a2)"><g transform="matrix(1, 0, 0, 1, 23, -0.000000000000017319)"><g clip-path="url(#e7a12ab600)"><g clip-path="url(#afde60a695)"><g clip-path="url(#e86cf03974)"><path fill="currentColor" d="M 0.996094 0.875 L 24.671875 0.875 L 24.671875 24.550781 L 0.996094 24.550781 Z M 0.996094 0.875 " fill-opacity="1" fill-rule="nonzero"/></g></g></g></g></g><g mask="url(#83c9275c5c)"><g transform="matrix(1, 0, 0, 1, 62, -0.000000000000017289)"><g clip-path="url(#a39c11016c)"><g clip-path="url(#187b9e40c3)"><g clip-path="url(#800f823441)"><path fill="currentColor" d="M 1.164062 0 L 24.839844 0 L 24.839844 23.675781 L 1.164062 23.675781 Z M 1.164062 0 " fill-opacity="1" fill-rule="nonzero"/></g></g></g></g></g><g mask="url(#1151e900a1)"><g transform="matrix(1, 0, 0, 1, 102, -0.000000000000017289)"><g clip-path="url(#037ccb10db)"><g clip-path="url(#e53ce69efa)"><g clip-path="url(#bcd32079db)"><path fill="currentColor" d="M 0.332031 0 L 24.007812 0 L 24.007812 23.675781 L 0.332031 23.675781 Z M 0.332031 0 " fill-opacity="1" fill-rule="nonzero"/></g></g></g></g></g><g mask="url(#86a85c50ec)"><g transform="matrix(1, 0, 0, 1, 140, -0.000000000000017289)"><g clip-path="url(#1925cc0b2c)"><g clip-path="url(#c70228c882)"><g clip-path="url(#be79543dbd)"><path fill="currentColor" d="M 0.804688 0 L 24.480469 0 L 24.480469 23.675781 L 0.804688 23.675781 Z M 0.804688 0 " fill-opacity="1" fill-rule="nonzero"/></g></g></g></g></g></svg>