<svg xmlns="http://www.w3.org/2000/svg" xmlns:xlink="http://www.w3.org/1999/xlink" width="67" zoomAndPan="magnify" viewBox="0 0 50.25 71.999998" height="96" preserveAspectRatio="xMidYMid meet" version="1.0"><defs><filter x="0%" y="0%" width="100%" height="100%" id="853a4442d0"><feColorMatrix values="0 0 0 0 1 0 0 0 0 1 0 0 0 0 1 0 0 0 1 0" color-interpolation-filters="sRGB"/></filter><clipPath id="6d9ba879c3"><path d="M 0 10 L 49.511719 10 L 49.511719 63 L 0 63 Z M 0 10 " clip-rule="nonzero"/></clipPath><mask id="6af9aa2bf9"><g filter="url(#853a4442d0)"><rect x="-5.025" width="60.3" fill="#000000" y="-7.2" height="86.399998" fill-opacity="0.5"/></g></mask><clipPath id="9698b6da0a"><path d="M 0 0.761719 L 49.324219 0.761719 L 49.324219 51.824219 L 0 51.824219 Z M 0 0.761719 " clip-rule="nonzero"/></clipPath><clipPath id="6d1a1fee19"><path d="M 49.324219 17.757812 L 49.324219 34.785156 C 49.324219 39.292969 47.535156 43.617188 44.347656 46.804688 C 41.160156 49.992188 36.835938 51.78125 32.328125 51.78125 L 16.992188 51.78125 C 12.484375 51.78125 8.160156 49.992188 4.972656 46.804688 C 1.785156 43.617188 -0.00390625 39.292969 -0.00390625 34.785156 L -0.00390625 17.757812 C -0.00390625 13.25 1.785156 8.929688 4.972656 5.742188 C 8.160156 2.554688 12.484375 0.761719 16.992188 0.761719 L 32.328125 0.761719 C 36.835938 0.761719 41.160156 2.554688 44.347656 5.742188 C 47.535156 8.929688 49.324219 13.25 49.324219 17.757812 Z M 49.324219 17.757812 " clip-rule="nonzero"/></clipPath><clipPath id="a5ec602fc0"><rect x="0" width="50" y="0" height="53"/></clipPath><clipPath id="626381cc07"><path d="M 12 47 L 37 47 L 37 71.46875 L 12 71.46875 Z M 12 47 " clip-rule="nonzero"/></clipPath><mask id="82a0ea4bbb"><g filter="url(#853a4442d0)"><rect x="-5.025" width="60.3" fill="#000000" y="-7.2" height="86.399998" fill-opacity="0.5"/></g></mask><clipPath id="cd931c946f"><path d="M 0.957031 1 L 24.375 1 L 24.375 24.417969 L 0.957031 24.417969 Z M 0.957031 1 " clip-rule="nonzero"/></clipPath><clipPath id="aba51153a9"><path d="M 12.664062 1 C 6.199219 1 0.957031 6.242188 0.957031 12.710938 C 0.957031 19.175781 6.199219 24.417969 12.664062 24.417969 C 19.132812 24.417969 24.375 19.175781 24.375 12.710938 C 24.375 6.242188 19.132812 1 12.664062 1 Z M 12.664062 1 " clip-rule="nonzero"/></clipPath><clipPath id="e897a1cf72"><rect x="0" width="25" y="0" height="25"/></clipPath><clipPath id="fadef8ef86"><path d="M 12 0.53125 L 37 0.53125 L 37 25 L 12 25 Z M 12 0.53125 " clip-rule="nonzero"/></clipPath><mask id="fd8e728870"><g filter="url(#853a4442d0)"><rect x="-5.025" width="60.3" fill="#000000" y="-7.2" height="86.399998" fill-opacity="0.5"/></g></mask><clipPath id="0a70e3abc9"><path d="M 0.957031 0.53125 L 24.375 0.53125 L 24.375 23.949219 L 0.957031 23.949219 Z M 0.957031 0.53125 " clip-rule="nonzero"/></clipPath><clipPath id="b480429a51"><path d="M 12.664062 0.53125 C 6.199219 0.53125 0.957031 5.773438 0.957031 12.238281 C 0.957031 18.707031 6.199219 23.949219 12.664062 23.949219 C 19.132812 23.949219 24.375 18.707031 24.375 12.238281 C 24.375 5.773438 19.132812 0.53125 12.664062 0.53125 Z M 12.664062 0.53125 " clip-rule="nonzero"/></clipPath><clipPath id="80c5f66593"><rect x="0" width="25" y="0" height="25"/></clipPath></defs><g clip-path="url(#6d9ba879c3)"><g mask="url(#6af9aa2bf9)"><g transform="matrix(1, 0, 0, 1, 0, 10)"><g clip-path="url(#a5ec602fc0)"><g clip-path="url(#9698b6da0a)"><g clip-path="url(#6d1a1fee19)"><path fill="#2b8b25" d="M 49.324219 0.761719 L 49.324219 51.824219 L -0.00390625 51.824219 L -0.00390625 0.761719 Z M 49.324219 0.761719 " fill-opacity="1" fill-rule="nonzero"/></g></g></g></g></g></g><g clip-path="url(#626381cc07)"><g mask="url(#82a0ea4bbb)"><g transform="matrix(1, 0, 0, 1, 12, 47)"><g clip-path="url(#e897a1cf72)"><g clip-path="url(#cd931c946f)"><g clip-path="url(#aba51153a9)"><path fill="#2b8b25" d="M 0.957031 1 L 24.375 1 L 24.375 24.417969 L 0.957031 24.417969 Z M 0.957031 1 " fill-opacity="1" fill-rule="nonzero"/></g></g></g></g></g></g><g clip-path="url(#fadef8ef86)"><g mask="url(#fd8e728870)"><g transform="matrix(1, 0, 0, 1, 12, 0.000000000000003775)"><g clip-path="url(#80c5f66593)"><g clip-path="url(#0a70e3abc9)"><g clip-path="url(#b480429a51)"><path fill="#2b8b25" d="M 0.957031 0.53125 L 24.375 0.53125 L 24.375 23.949219 L 0.957031 23.949219 Z M 0.957031 0.53125 " fill-opacity="1" fill-rule="nonzero"/></g></g></g></g></g></g></svg>