<svg xmlns="http://www.w3.org/2000/svg" xmlns:xlink="http://www.w3.org/1999/xlink" width="259" zoomAndPan="magnify" viewBox="0 0 194.25 124.499996" height="166" preserveAspectRatio="xMidYMid meet" version="1.0"><defs><filter x="0%" y="0%" width="100%" height="100%" id="e2b0f0f046"><feColorMatrix values="0 0 0 0 1 0 0 0 0 1 0 0 0 0 1 0 0 0 1 0" color-interpolation-filters="sRGB"/></filter><mask id="93133d5136"><g filter="url(#e2b0f0f046)"><rect x="-19.425" width="233.1" fill="#000000" y="-12.45" height="149.399995" fill-opacity="0.5"/></g></mask><clipPath id="bb925d00f3"><path d="M 0.953125 0.34375 L 174 0.34375 L 174 103.21875 L 0.953125 103.21875 Z M 0.953125 0.34375 " clip-rule="nonzero"/></clipPath><clipPath id="a99f9a5fca"><path d="M 18.132812 0.34375 L 156.648438 0.34375 C 161.207031 0.34375 165.574219 2.152344 168.796875 5.375 C 172.019531 8.597656 173.828125 12.964844 173.828125 17.523438 L 173.828125 86.039062 C 173.828125 90.597656 172.019531 94.964844 168.796875 98.1875 C 165.574219 101.410156 161.207031 103.21875 156.648438 103.21875 L 18.132812 103.21875 C 13.578125 103.21875 9.207031 101.410156 5.984375 98.1875 C 2.761719 94.964844 0.953125 90.597656 0.953125 86.039062 L 0.953125 17.523438 C 0.953125 12.964844 2.761719 8.597656 5.984375 5.375 C 9.207031 2.152344 13.578125 0.34375 18.132812 0.34375 Z M 18.132812 0.34375 " clip-rule="nonzero"/></clipPath><clipPath id="10ec5f972a"><rect x="0" width="175" y="0" height="104"/></clipPath><mask id="00eeee779e"><g filter="url(#e2b0f0f046)"><rect x="-19.425" width="233.1" fill="#000000" y="-12.45" height="149.399995" fill-opacity="0.5"/></g></mask><clipPath id="59f061ab64"><path d="M 0.15625 0.890625 L 23.828125 0.890625 L 23.828125 24.5625 L 0.15625 24.5625 Z M 0.15625 0.890625 " clip-rule="nonzero"/></clipPath><clipPath id="b636d0017b"><path d="M 11.992188 0.890625 C 5.453125 0.890625 0.15625 6.191406 0.15625 12.726562 C 0.15625 19.261719 5.453125 24.5625 11.992188 24.5625 C 18.527344 24.5625 23.828125 19.261719 23.828125 12.726562 C 23.828125 6.191406 18.527344 0.890625 11.992188 0.890625 Z M 11.992188 0.890625 " clip-rule="nonzero"/></clipPath><clipPath id="f5f06cc027"><rect x="0" width="24" y="0" height="25"/></clipPath><mask id="f6af178615"><g filter="url(#e2b0f0f046)"><rect x="-19.425" width="233.1" fill="#000000" y="-12.45" height="149.399995" fill-opacity="0.5"/></g></mask><clipPath id="f1c10d31d1"><path d="M 0.320312 0.890625 L 23.992188 0.890625 L 23.992188 24.5625 L 0.320312 24.5625 Z M 0.320312 0.890625 " clip-rule="nonzero"/></clipPath><clipPath id="5b17a5e50d"><path d="M 12.15625 0.890625 C 5.621094 0.890625 0.320312 6.191406 0.320312 12.726562 C 0.320312 19.261719 5.621094 24.5625 12.15625 24.5625 C 18.695312 24.5625 23.992188 19.261719 23.992188 12.726562 C 23.992188 6.191406 18.695312 0.890625 12.15625 0.890625 Z M 12.15625 0.890625 " clip-rule="nonzero"/></clipPath><clipPath id="60516e940e"><rect x="0" width="25" y="0" height="25"/></clipPath><clipPath id="4e4b8c0b74"><path d="M 169 28 L 193.488281 28 L 193.488281 53 L 169 53 Z M 169 28 " clip-rule="nonzero"/></clipPath><mask id="56937284a4"><g filter="url(#e2b0f0f046)"><rect x="-19.425" width="233.1" fill="#000000" y="-12.45" height="149.399995" fill-opacity="0.5"/></g></mask><clipPath id="5bc2f44ca5"><path d="M 0.296875 0.703125 L 23.96875 0.703125 L 23.96875 24.375 L 0.296875 24.375 Z M 0.296875 0.703125 " clip-rule="nonzero"/></clipPath><clipPath id="aa6ed19bfb"><path d="M 12.132812 0.703125 C 5.59375 0.703125 0.296875 6 0.296875 12.539062 C 0.296875 19.074219 5.59375 24.375 12.132812 24.375 C 18.667969 24.375 23.96875 19.074219 23.96875 12.539062 C 23.96875 6 18.667969 0.703125 12.132812 0.703125 Z M 12.132812 0.703125 " clip-rule="nonzero"/></clipPath><clipPath id="d1c3cf2d20"><rect x="0" width="25" y="0" height="25"/></clipPath><clipPath id="71c91fa7e6"><path d="M 169 66 L 193.488281 66 L 193.488281 91 L 169 91 Z M 169 66 " clip-rule="nonzero"/></clipPath><mask id="784a0b30e2"><g filter="url(#e2b0f0f046)"><rect x="-19.425" width="233.1" fill="#000000" y="-12.45" height="149.399995" fill-opacity="0.5"/></g></mask><clipPath id="0887d7c3ff"><path d="M 0.296875 0.507812 L 23.96875 0.507812 L 23.96875 24.179688 L 0.296875 24.179688 Z M 0.296875 0.507812 " clip-rule="nonzero"/></clipPath><clipPath id="d2f2d440e6"><path d="M 12.132812 0.507812 C 5.59375 0.507812 0.296875 5.808594 0.296875 12.34375 C 0.296875 18.878906 5.59375 24.179688 12.132812 24.179688 C 18.667969 24.179688 23.96875 18.878906 23.96875 12.34375 C 23.96875 5.808594 18.667969 0.507812 12.132812 0.507812 Z M 12.132812 0.507812 " clip-rule="nonzero"/></clipPath><clipPath id="cc1b719639"><rect x="0" width="25" y="0" height="25"/></clipPath><clipPath id="eec8bfe385"><path d="M 0.015625 29 L 24 29 L 24 54 L 0.015625 54 Z M 0.015625 29 " clip-rule="nonzero"/></clipPath><mask id="66a190c6fb"><g filter="url(#e2b0f0f046)"><rect x="-19.425" width="233.1" fill="#000000" y="-12.45" height="149.399995" fill-opacity="0.5"/></g></mask><clipPath id="ce1899d0c3"><path d="M 0.015625 0.753906 L 23.6875 0.753906 L 23.6875 24.429688 L 0.015625 24.429688 Z M 0.015625 0.753906 " clip-rule="nonzero"/></clipPath><clipPath id="26eaed8c8f"><path d="M 11.851562 0.753906 C 5.3125 0.753906 0.015625 6.054688 0.015625 12.589844 C 0.015625 19.128906 5.3125 24.429688 11.851562 24.429688 C 18.386719 24.429688 23.6875 19.128906 23.6875 12.589844 C 23.6875 6.054688 18.386719 0.753906 11.851562 0.753906 Z M 11.851562 0.753906 " clip-rule="nonzero"/></clipPath><clipPath id="dac52f8272"><rect x="0" width="24" y="0" height="25"/></clipPath><clipPath id="f59fa4cf5d"><path d="M 0.015625 67 L 25 67 L 25 92 L 0.015625 92 Z M 0.015625 67 " clip-rule="nonzero"/></clipPath><mask id="4eaaf9905c"><g filter="url(#e2b0f0f046)"><rect x="-19.425" width="233.1" fill="#000000" y="-12.45" height="149.399995" fill-opacity="0.5"/></g></mask><clipPath id="d72aa9b194"><path d="M 0.699219 0.5625 L 24.375 0.5625 L 24.375 24.234375 L 0.699219 24.234375 Z M 0.699219 0.5625 " clip-rule="nonzero"/></clipPath><clipPath id="f3b6189bf0"><path d="M 12.539062 0.5625 C 6 0.5625 0.699219 5.859375 0.699219 12.398438 C 0.699219 18.933594 6 24.234375 12.539062 24.234375 C 19.074219 24.234375 24.375 18.933594 24.375 12.398438 C 24.375 5.859375 19.074219 0.5625 12.539062 0.5625 Z M 12.539062 0.5625 " clip-rule="nonzero"/></clipPath><clipPath id="0913ad3a41"><rect x="0" width="25" y="0" height="25"/></clipPath><mask id="3bc1e32200"><g filter="url(#e2b0f0f046)"><rect x="-19.425" width="233.1" fill="#000000" y="-12.45" height="149.399995" fill-opacity="0.5"/></g></mask><clipPath id="defb7cdfd8"><path d="M 0.488281 0.890625 L 24.160156 0.890625 L 24.160156 24.5625 L 0.488281 24.5625 Z M 0.488281 0.890625 " clip-rule="nonzero"/></clipPath><clipPath id="94f8599769"><path d="M 12.324219 0.890625 C 5.785156 0.890625 0.488281 6.191406 0.488281 12.726562 C 0.488281 19.261719 5.785156 24.5625 12.324219 24.5625 C 18.859375 24.5625 24.160156 19.261719 24.160156 12.726562 C 24.160156 6.191406 18.859375 0.890625 12.324219 0.890625 Z M 12.324219 0.890625 " clip-rule="nonzero"/></clipPath><clipPath id="21f05303ca"><rect x="0" width="25" y="0" height="25"/></clipPath><mask id="0db21a2e65"><g filter="url(#e2b0f0f046)"><rect x="-19.425" width="233.1" fill="#000000" y="-12.45" height="149.399995" fill-opacity="0.5"/></g></mask><clipPath id="f8fbaf534d"><path d="M 0.953125 0.890625 L 24.628906 0.890625 L 24.628906 24.5625 L 0.953125 24.5625 Z M 0.953125 0.890625 " clip-rule="nonzero"/></clipPath><clipPath id="5de70abf23"><path d="M 12.789062 0.890625 C 6.253906 0.890625 0.953125 6.191406 0.953125 12.726562 C 0.953125 19.261719 6.253906 24.5625 12.789062 24.5625 C 19.328125 24.5625 24.628906 19.261719 24.628906 12.726562 C 24.628906 6.191406 19.328125 0.890625 12.789062 0.890625 Z M 12.789062 0.890625 " clip-rule="nonzero"/></clipPath><clipPath id="d09507f4d0"><rect x="0" width="25" y="0" height="25"/></clipPath><mask id="4d8e3960de"><g filter="url(#e2b0f0f046)"><rect x="-19.425" width="233.1" fill="#000000" y="-12.45" height="149.399995" fill-opacity="0.5"/></g></mask><clipPath id="61878471f9"><path d="M 0.375 0.492188 L 24.046875 0.492188 L 24.046875 24.167969 L 0.375 24.167969 Z M 0.375 0.492188 " clip-rule="nonzero"/></clipPath><clipPath id="79aae63056"><path d="M 12.210938 0.492188 C 5.671875 0.492188 0.375 5.792969 0.375 12.332031 C 0.375 18.867188 5.671875 24.167969 12.210938 24.167969 C 18.746094 24.167969 24.046875 18.867188 24.046875 12.332031 C 24.046875 5.792969 18.746094 0.492188 12.210938 0.492188 Z M 12.210938 0.492188 " clip-rule="nonzero"/></clipPath><clipPath id="0d45c3466e"><rect x="0" width="25" y="0" height="25"/></clipPath><mask id="7ea10f4d5e"><g filter="url(#e2b0f0f046)"><rect x="-19.425" width="233.1" fill="#000000" y="-12.45" height="149.399995" fill-opacity="0.5"/></g></mask><clipPath id="d0f25d21b3"><path d="M 0.539062 0 L 24.210938 0 L 24.210938 23.671875 L 0.539062 23.671875 Z M 0.539062 0 " clip-rule="nonzero"/></clipPath><clipPath id="ba09611329"><path d="M 12.375 0 C 5.839844 0 0.539062 5.300781 0.539062 11.835938 C 0.539062 18.375 5.839844 23.671875 12.375 23.671875 C 18.914062 23.671875 24.210938 18.375 24.210938 11.835938 C 24.210938 5.300781 18.914062 0 12.375 0 Z M 12.375 0 " clip-rule="nonzero"/></clipPath><clipPath id="64a1b178de"><rect x="0" width="25" y="0" height="24"/></clipPath><mask id="a32a51d9d9"><g filter="url(#e2b0f0f046)"><rect x="-19.425" width="233.1" fill="#000000" y="-12.45" height="149.399995" fill-opacity="0.5"/></g></mask><clipPath id="9604c22ccc"><path d="M 0.703125 0 L 24.375 0 L 24.375 23.671875 L 0.703125 23.671875 Z M 0.703125 0 " clip-rule="nonzero"/></clipPath><clipPath id="600bcd045e"><path d="M 12.539062 0 C 6.003906 0 0.703125 5.300781 0.703125 11.835938 C 0.703125 18.375 6.003906 23.671875 12.539062 23.671875 C 19.078125 23.671875 24.375 18.375 24.375 11.835938 C 24.375 5.300781 19.078125 0 12.539062 0 Z M 12.539062 0 " clip-rule="nonzero"/></clipPath><clipPath id="faebab3793"><rect x="0" width="25" y="0" height="24"/></clipPath><mask id="b2852f8b05"><g filter="url(#e2b0f0f046)"><rect x="-19.425" width="233.1" fill="#000000" y="-12.45" height="149.399995" fill-opacity="0.5"/></g></mask><clipPath id="90a2b39121"><path d="M 0.171875 0 L 23.84375 0 L 23.84375 23.671875 L 0.171875 23.671875 Z M 0.171875 0 " clip-rule="nonzero"/></clipPath><clipPath id="47b51490b5"><path d="M 12.007812 0 C 5.472656 0 0.171875 5.300781 0.171875 11.835938 C 0.171875 18.375 5.472656 23.671875 12.007812 23.671875 C 18.546875 23.671875 23.84375 18.375 23.84375 11.835938 C 23.84375 5.300781 18.546875 0 12.007812 0 Z M 12.007812 0 " clip-rule="nonzero"/></clipPath><clipPath id="6c669f3e08"><rect x="0" width="24" y="0" height="24"/></clipPath></defs><g mask="url(#93133d5136)"><g transform="matrix(1, 0, 0, 1, 9, 10)"><g clip-path="url(#10ec5f972a)"><g clip-path="url(#bb925d00f3)"><g clip-path="url(#a99f9a5fca)"><path fill="#2b8b25" d="M 0.953125 0.34375 L 173.757812 0.34375 L 173.757812 103.21875 L 0.953125 103.21875 Z M 0.953125 0.34375 " fill-opacity="1" fill-rule="nonzero"/></g></g></g></g></g><g mask="url(#00eeee779e)"><g transform="matrix(1, 0, 0, 1, 26, 99)"><g clip-path="url(#f5f06cc027)"><g clip-path="url(#59f061ab64)"><g clip-path="url(#b636d0017b)"><path fill="#2b8b25" d="M 0.15625 0.890625 L 23.828125 0.890625 L 23.828125 24.5625 L 0.15625 24.5625 Z M 0.15625 0.890625 " fill-opacity="1" fill-rule="nonzero"/></g></g></g></g></g><g mask="url(#f6af178615)"><g transform="matrix(1, 0, 0, 1, 65, 99)"><g clip-path="url(#60516e940e)"><g clip-path="url(#f1c10d31d1)"><g clip-path="url(#5b17a5e50d)"><path fill="#2b8b25" d="M 0.320312 0.890625 L 23.992188 0.890625 L 23.992188 24.5625 L 0.320312 24.5625 Z M 0.320312 0.890625 " fill-opacity="1" fill-rule="nonzero"/></g></g></g></g></g><g clip-path="url(#4e4b8c0b74)"><g mask="url(#56937284a4)"><g transform="matrix(1, 0, 0, 1, 169, 28)"><g clip-path="url(#d1c3cf2d20)"><g clip-path="url(#5bc2f44ca5)"><g clip-path="url(#aa6ed19bfb)"><path fill="#2b8b25" d="M 0.296875 0.703125 L 23.96875 0.703125 L 23.96875 24.375 L 0.296875 24.375 Z M 0.296875 0.703125 " fill-opacity="1" fill-rule="nonzero"/></g></g></g></g></g></g><g clip-path="url(#71c91fa7e6)"><g mask="url(#784a0b30e2)"><g transform="matrix(1, 0, 0, 1, 169, 66)"><g clip-path="url(#cc1b719639)"><g clip-path="url(#0887d7c3ff)"><g clip-path="url(#d2f2d440e6)"><path fill="#2b8b25" d="M 0.296875 0.507812 L 23.96875 0.507812 L 23.96875 24.179688 L 0.296875 24.179688 Z M 0.296875 0.507812 " fill-opacity="1" fill-rule="nonzero"/></g></g></g></g></g></g><g clip-path="url(#eec8bfe385)"><g mask="url(#66a190c6fb)"><g transform="matrix(1, 0, 0, 1, 0.000000000000000003, 29)"><g clip-path="url(#dac52f8272)"><g clip-path="url(#ce1899d0c3)"><g clip-path="url(#26eaed8c8f)"><path fill="#2b8b25" d="M 0.015625 0.753906 L 23.6875 0.753906 L 23.6875 24.429688 L 0.015625 24.429688 Z M 0.015625 0.753906 " fill-opacity="1" fill-rule="nonzero"/></g></g></g></g></g></g><g clip-path="url(#f59fa4cf5d)"><g mask="url(#4eaaf9905c)"><g transform="matrix(1, 0, 0, 1, 0.000000000000000056, 67)"><g clip-path="url(#0913ad3a41)"><g clip-path="url(#d72aa9b194)"><g clip-path="url(#f3b6189bf0)"><path fill="#2b8b25" d="M 0.699219 0.5625 L 24.375 0.5625 L 24.375 24.234375 L 0.699219 24.234375 Z M 0.699219 0.5625 " fill-opacity="1" fill-rule="nonzero"/></g></g></g></g></g></g><g mask="url(#3bc1e32200)"><g transform="matrix(1, 0, 0, 1, 104, 99)"><g clip-path="url(#21f05303ca)"><g clip-path="url(#defb7cdfd8)"><g clip-path="url(#94f8599769)"><path fill="#2b8b25" d="M 0.488281 0.890625 L 24.160156 0.890625 L 24.160156 24.5625 L 0.488281 24.5625 Z M 0.488281 0.890625 " fill-opacity="1" fill-rule="nonzero"/></g></g></g></g></g><g mask="url(#0db21a2e65)"><g transform="matrix(1, 0, 0, 1, 142, 99)"><g clip-path="url(#d09507f4d0)"><g clip-path="url(#f8fbaf534d)"><g clip-path="url(#5de70abf23)"><path fill="#2b8b25" d="M 0.953125 0.890625 L 24.628906 0.890625 L 24.628906 24.5625 L 0.953125 24.5625 Z M 0.953125 0.890625 " fill-opacity="1" fill-rule="nonzero"/></g></g></g></g></g><g mask="url(#4d8e3960de)"><g transform="matrix(1, 0, 0, 1, 24, 1)"><g clip-path="url(#0d45c3466e)"><g clip-path="url(#61878471f9)"><g clip-path="url(#79aae63056)"><path fill="#2b8b25" d="M 0.375 0.492188 L 24.046875 0.492188 L 24.046875 24.167969 L 0.375 24.167969 Z M 0.375 0.492188 " fill-opacity="1" fill-rule="nonzero"/></g></g></g></g></g><g mask="url(#7ea10f4d5e)"><g transform="matrix(1, 0, 0, 1, 63, 0)"><g clip-path="url(#64a1b178de)"><g clip-path="url(#d0f25d21b3)"><g clip-path="url(#ba09611329)"><path fill="#2b8b25" d="M 0.539062 0 L 24.210938 0 L 24.210938 23.671875 L 0.539062 23.671875 Z M 0.539062 0 " fill-opacity="1" fill-rule="nonzero"/></g></g></g></g></g><g mask="url(#a32a51d9d9)"><g transform="matrix(1, 0, 0, 1, 102, 0)"><g clip-path="url(#faebab3793)"><g clip-path="url(#9604c22ccc)"><g clip-path="url(#600bcd045e)"><path fill="#2b8b25" d="M 0.703125 0 L 24.375 0 L 24.375 23.671875 L 0.703125 23.671875 Z M 0.703125 0 " fill-opacity="1" fill-rule="nonzero"/></g></g></g></g></g><g mask="url(#b2852f8b05)"><g transform="matrix(1, 0, 0, 1, 141, 0)"><g clip-path="url(#6c669f3e08)"><g clip-path="url(#90a2b39121)"><g clip-path="url(#47b51490b5)"><path fill="#2b8b25" d="M 0.171875 0 L 23.84375 0 L 23.84375 23.671875 L 0.171875 23.671875 Z M 0.171875 0 " fill-opacity="1" fill-rule="nonzero"/></g></g></g></g></g></svg>