<svg xmlns="http://www.w3.org/2000/svg" xmlns:xlink="http://www.w3.org/1999/xlink" width="163" zoomAndPan="magnify" viewBox="0 0 122.25 123.749996" height="165" preserveAspectRatio="xMidYMid meet" version="1.0"><defs><filter x="0%" y="0%" width="100%" height="100%" id="46455ce9d2"><feColorMatrix values="0 0 0 0 1 0 0 0 0 1 0 0 0 0 1 0 0 0 1 0" color-interpolation-filters="sRGB"/></filter><mask id="d7a53eafbf"><g filter="url(#46455ce9d2)"><rect x="-12.225" width="146.7" fill="#000000" y="-12.375" height="148.499995" fill-opacity="0.5"/></g></mask><clipPath id="9154ddf121"><path d="M 0.234375 0.320312 L 102.894531 0.320312 L 102.894531 102.980469 L 0.234375 102.980469 Z M 0.234375 0.320312 " clip-rule="nonzero"/></clipPath><clipPath id="fcf5f4640a"><path d="M 51.5625 0.320312 C 23.214844 0.320312 0.234375 23.300781 0.234375 51.648438 C 0.234375 80 23.214844 102.980469 51.5625 102.980469 C 79.914062 102.980469 102.894531 80 102.894531 51.648438 C 102.894531 23.300781 79.914062 0.320312 51.5625 0.320312 Z M 51.5625 0.320312 " clip-rule="nonzero"/></clipPath><clipPath id="f62271b802"><rect x="0" width="104" y="0" height="104"/></clipPath><clipPath id="814c33d2e5"><path d="M 48 0.253906 L 73 0.253906 L 73 25 L 48 25 Z M 48 0.253906 " clip-rule="nonzero"/></clipPath><mask id="890ee7ddd9"><g filter="url(#46455ce9d2)"><rect x="-12.225" width="146.7" fill="#000000" y="-12.375" height="148.499995" fill-opacity="0.5"/></g></mask><clipPath id="16d762c413"><path d="M 0.753906 0.253906 L 24.375 0.253906 L 24.375 23.875 L 0.753906 23.875 Z M 0.753906 0.253906 " clip-rule="nonzero"/></clipPath><clipPath id="fcf560227f"><path d="M 12.5625 0.253906 C 6.039062 0.253906 0.753906 5.542969 0.753906 12.0625 C 0.753906 18.585938 6.039062 23.875 12.5625 23.875 C 19.085938 23.875 24.375 18.585938 24.375 12.0625 C 24.375 5.542969 19.085938 0.253906 12.5625 0.253906 Z M 12.5625 0.253906 " clip-rule="nonzero"/></clipPath><clipPath id="cd894a94d4"><rect x="0" width="25" y="0" height="25"/></clipPath><mask id="59462ef0c4"><g filter="url(#46455ce9d2)"><rect x="-12.225" width="146.7" fill="#000000" y="-12.375" height="148.499995" fill-opacity="0.5"/></g></mask><clipPath id="ba562a96a6"><path d="M 0.6875 0.1875 L 24.308594 0.1875 L 24.308594 23.808594 L 0.6875 23.808594 Z M 0.6875 0.1875 " clip-rule="nonzero"/></clipPath><clipPath id="5549645162"><path d="M 12.5 0.1875 C 5.976562 0.1875 0.6875 5.476562 0.6875 12 C 0.6875 18.523438 5.976562 23.808594 12.5 23.808594 C 19.023438 23.808594 24.308594 18.523438 24.308594 12 C 24.308594 5.476562 19.023438 0.1875 12.5 0.1875 Z M 12.5 0.1875 " clip-rule="nonzero"/></clipPath><clipPath id="be986c0e6c"><rect x="0" width="25" y="0" height="24"/></clipPath><clipPath id="0bafd81563"><path d="M 97 49 L 121.503906 49 L 121.503906 74 L 97 74 Z M 97 49 " clip-rule="nonzero"/></clipPath><mask id="f6bf7f5c3f"><g filter="url(#46455ce9d2)"><rect x="-12.225" width="146.7" fill="#000000" y="-12.375" height="148.499995" fill-opacity="0.5"/></g></mask><clipPath id="13aca05bae"><path d="M 0.847656 1.09375 L 24.46875 1.09375 L 24.46875 24.714844 L 0.847656 24.714844 Z M 0.847656 1.09375 " clip-rule="nonzero"/></clipPath><clipPath id="e8a114366d"><path d="M 12.65625 1.09375 C 6.136719 1.09375 0.847656 6.382812 0.847656 12.90625 C 0.847656 19.425781 6.136719 24.714844 12.65625 24.714844 C 19.179688 24.714844 24.46875 19.425781 24.46875 12.90625 C 24.46875 6.382812 19.179688 1.09375 12.65625 1.09375 Z M 12.65625 1.09375 " clip-rule="nonzero"/></clipPath><clipPath id="ca055f0a67"><rect x="0" width="25" y="0" height="25"/></clipPath><mask id="bbe9dba106"><g filter="url(#46455ce9d2)"><rect x="-12.225" width="146.7" fill="#000000" y="-12.375" height="148.499995" fill-opacity="0.5"/></g></mask><clipPath id="52ad6d6d78"><path d="M 0 1.09375 L 23.621094 1.09375 L 23.621094 24.714844 L 0 24.714844 Z M 0 1.09375 " clip-rule="nonzero"/></clipPath><clipPath id="ee89ffb84c"><path d="M 11.8125 1.09375 C 5.289062 1.09375 0 6.382812 0 12.90625 C 0 19.425781 5.289062 24.714844 11.8125 24.714844 C 18.335938 24.714844 23.621094 19.425781 23.621094 12.90625 C 23.621094 6.382812 18.335938 1.09375 11.8125 1.09375 Z M 11.8125 1.09375 " clip-rule="nonzero"/></clipPath><clipPath id="58ce4cdf89"><rect x="0" width="24" y="0" height="25"/></clipPath><mask id="918b90a50c"><g filter="url(#46455ce9d2)"><rect x="-12.225" width="146.7" fill="#000000" y="-12.375" height="148.499995" fill-opacity="0.5"/></g></mask><clipPath id="5858263c03"><path d="M 1.035156 1.050781 L 24.65625 1.050781 L 24.65625 24.675781 L 1.035156 24.675781 Z M 1.035156 1.050781 " clip-rule="nonzero"/></clipPath><clipPath id="543703af29"><path d="M 12.847656 1.050781 C 6.324219 1.050781 1.035156 6.339844 1.035156 12.863281 C 1.035156 19.386719 6.324219 24.675781 12.847656 24.675781 C 19.371094 24.675781 24.65625 19.386719 24.65625 12.863281 C 24.65625 6.339844 19.371094 1.050781 12.847656 1.050781 Z M 12.847656 1.050781 " clip-rule="nonzero"/></clipPath><clipPath id="967dc89727"><rect x="0" width="25" y="0" height="25"/></clipPath><mask id="59a6ea15ae"><g filter="url(#46455ce9d2)"><rect x="-12.225" width="146.7" fill="#000000" y="-12.375" height="148.499995" fill-opacity="0.5"/></g></mask><clipPath id="c403204cf0"><path d="M 1.015625 1.050781 L 24.640625 1.050781 L 24.640625 24.675781 L 1.015625 24.675781 Z M 1.015625 1.050781 " clip-rule="nonzero"/></clipPath><clipPath id="6c1a9bb06c"><path d="M 12.828125 1.050781 C 6.304688 1.050781 1.015625 6.339844 1.015625 12.863281 C 1.015625 19.386719 6.304688 24.675781 12.828125 24.675781 C 19.351562 24.675781 24.640625 19.386719 24.640625 12.863281 C 24.640625 6.339844 19.351562 1.050781 12.828125 1.050781 Z M 12.828125 1.050781 " clip-rule="nonzero"/></clipPath><clipPath id="78b98fdb8c"><rect x="0" width="25" y="0" height="25"/></clipPath><mask id="178eba5315"><g filter="url(#46455ce9d2)"><rect x="-12.225" width="146.7" fill="#000000" y="-12.375" height="148.499995" fill-opacity="0.5"/></g></mask><clipPath id="39581da737"><path d="M 1.035156 0.402344 L 24.65625 0.402344 L 24.65625 24.023438 L 1.035156 24.023438 Z M 1.035156 0.402344 " clip-rule="nonzero"/></clipPath><clipPath id="d7f045832b"><path d="M 12.847656 0.402344 C 6.324219 0.402344 1.035156 5.691406 1.035156 12.214844 C 1.035156 18.738281 6.324219 24.023438 12.847656 24.023438 C 19.371094 24.023438 24.65625 18.738281 24.65625 12.214844 C 24.65625 5.691406 19.371094 0.402344 12.847656 0.402344 Z M 12.847656 0.402344 " clip-rule="nonzero"/></clipPath><clipPath id="e56f561c32"><rect x="0" width="25" y="0" height="25"/></clipPath><mask id="296693960f"><g filter="url(#46455ce9d2)"><rect x="-12.225" width="146.7" fill="#000000" y="-12.375" height="148.499995" fill-opacity="0.5"/></g></mask><clipPath id="a231153aa1"><path d="M 0.253906 0.402344 L 23.875 0.402344 L 23.875 24.023438 L 0.253906 24.023438 Z M 0.253906 0.402344 " clip-rule="nonzero"/></clipPath><clipPath id="2e84ad2094"><path d="M 12.0625 0.402344 C 5.542969 0.402344 0.253906 5.691406 0.253906 12.214844 C 0.253906 18.738281 5.542969 24.023438 12.0625 24.023438 C 18.585938 24.023438 23.875 18.738281 23.875 12.214844 C 23.875 5.691406 18.585938 0.402344 12.0625 0.402344 Z M 12.0625 0.402344 " clip-rule="nonzero"/></clipPath><clipPath id="4f4f27e19a"><rect x="0" width="25" y="0" height="25"/></clipPath></defs><g mask="url(#d7a53eafbf)"><g transform="matrix(1, 0, 0, 1, 9, 11)"><g clip-path="url(#f62271b802)"><g clip-path="url(#9154ddf121)"><g clip-path="url(#fcf5f4640a)"><path fill="#2b8b25" d="M 0.234375 0.320312 L 102.894531 0.320312 L 102.894531 102.980469 L 0.234375 102.980469 Z M 0.234375 0.320312 " fill-opacity="1" fill-rule="nonzero"/></g></g></g></g></g><g clip-path="url(#814c33d2e5)"><g mask="url(#890ee7ddd9)"><g transform="matrix(1, 0, 0, 1, 48, -0.000000000000025702)"><g clip-path="url(#cd894a94d4)"><g clip-path="url(#16d762c413)"><g clip-path="url(#fcf560227f)"><path fill="#2b8b25" d="M 0.753906 0.253906 L 24.375 0.253906 L 24.375 23.875 L 0.753906 23.875 Z M 0.753906 0.253906 " fill-opacity="1" fill-rule="nonzero"/></g></g></g></g></g></g><g mask="url(#59462ef0c4)"><g transform="matrix(1, 0, 0, 1, 51, 99)"><g clip-path="url(#be986c0e6c)"><g clip-path="url(#ba562a96a6)"><g clip-path="url(#5549645162)"><path fill="#2b8b25" d="M 0.6875 0.1875 L 24.308594 0.1875 L 24.308594 23.808594 L 0.6875 23.808594 Z M 0.6875 0.1875 " fill-opacity="1" fill-rule="nonzero"/></g></g></g></g></g><g clip-path="url(#0bafd81563)"><g mask="url(#f6bf7f5c3f)"><g transform="matrix(1, 0, 0, 1, 97, 49)"><g clip-path="url(#ca055f0a67)"><g clip-path="url(#13aca05bae)"><g clip-path="url(#e8a114366d)"><path fill="#2b8b25" d="M 0.847656 1.09375 L 24.46875 1.09375 L 24.46875 24.714844 L 0.847656 24.714844 Z M 0.847656 1.09375 " fill-opacity="1" fill-rule="nonzero"/></g></g></g></g></g></g><g mask="url(#bbe9dba106)"><g transform="matrix(1, 0, 0, 1, 0, 49)"><g clip-path="url(#58ce4cdf89)"><g clip-path="url(#52ad6d6d78)"><g clip-path="url(#ee89ffb84c)"><path fill="#2b8b25" d="M 0 1.09375 L 23.621094 1.09375 L 23.621094 24.714844 L 0 24.714844 Z M 0 1.09375 " fill-opacity="1" fill-rule="nonzero"/></g></g></g></g></g><g mask="url(#918b90a50c)"><g transform="matrix(1, 0, 0, 1, 85, 12)"><g clip-path="url(#967dc89727)"><g clip-path="url(#5858263c03)"><g clip-path="url(#543703af29)"><path fill="#2b8b25" d="M 1.035156 1.050781 L 24.65625 1.050781 L 24.65625 24.675781 L 1.035156 24.675781 Z M 1.035156 1.050781 " fill-opacity="1" fill-rule="nonzero"/></g></g></g></g></g><g mask="url(#59a6ea15ae)"><g transform="matrix(1, 0, 0, 1, 13, 12)"><g clip-path="url(#78b98fdb8c)"><g clip-path="url(#c403204cf0)"><g clip-path="url(#6c1a9bb06c)"><path fill="#2b8b25" d="M 1.015625 1.050781 L 24.640625 1.050781 L 24.640625 24.675781 L 1.015625 24.675781 Z M 1.015625 1.050781 " fill-opacity="1" fill-rule="nonzero"/></g></g></g></g></g><g mask="url(#178eba5315)"><g transform="matrix(1, 0, 0, 1, 85, 86)"><g clip-path="url(#e56f561c32)"><g clip-path="url(#39581da737)"><g clip-path="url(#d7f045832b)"><path fill="#2b8b25" d="M 1.035156 0.402344 L 24.65625 0.402344 L 24.65625 24.023438 L 1.035156 24.023438 Z M 1.035156 0.402344 " fill-opacity="1" fill-rule="nonzero"/></g></g></g></g></g><g mask="url(#296693960f)"><g transform="matrix(1, 0, 0, 1, 16, 86)"><g clip-path="url(#4f4f27e19a)"><g clip-path="url(#a231153aa1)"><g clip-path="url(#2e84ad2094)"><path fill="#2b8b25" d="M 0.253906 0.402344 L 23.875 0.402344 L 23.875 24.023438 L 0.253906 24.023438 Z M 0.253906 0.402344 " fill-opacity="1" fill-rule="nonzero"/></g></g></g></g></g></svg>