<svg xmlns="http://www.w3.org/2000/svg" xmlns:xlink="http://www.w3.org/1999/xlink" width="127" zoomAndPan="magnify" viewBox="0 0 95.25 93.749997" height="125" preserveAspectRatio="xMidYMid meet" version="1.0"><defs><filter x="0%" y="0%" width="100%" height="100%" id="f5a6fa1d8d"><feColorMatrix values="0 0 0 0 1 0 0 0 0 1 0 0 0 0 1 0 0 0 1 0" color-interpolation-filters="sRGB"/></filter><mask id="c11af40d4a"><g filter="url(#f5a6fa1d8d)"><rect x="-9.525" width="114.3" fill="#000000" y="-9.375" height="112.499996" fill-opacity="0.5"/></g></mask><clipPath id="bbe3be7b5a"><path d="M 0.625 0.800781 L 74.605469 0.800781 L 74.605469 74.78125 L 0.625 74.78125 Z M 0.625 0.800781 " clip-rule="nonzero"/></clipPath><clipPath id="0c54079400"><path d="M 17.738281 0.800781 L 57.488281 0.800781 C 62.027344 0.800781 66.382812 2.605469 69.589844 5.8125 C 72.800781 9.023438 74.605469 13.375 74.605469 17.914062 L 74.605469 57.667969 C 74.605469 62.207031 72.800781 66.558594 69.589844 69.769531 C 66.382812 72.976562 62.027344 74.78125 57.488281 74.78125 L 17.738281 74.78125 C 13.199219 74.78125 8.847656 72.976562 5.636719 69.769531 C 2.425781 66.558594 0.625 62.207031 0.625 57.667969 L 0.625 17.914062 C 0.625 13.375 2.425781 9.023438 5.636719 5.8125 C 8.847656 2.605469 13.199219 0.800781 17.738281 0.800781 Z M 17.738281 0.800781 " clip-rule="nonzero"/></clipPath><clipPath id="5b73ef02bd"><rect x="0" width="75" y="0" height="75"/></clipPath><mask id="65cc6fd1b0"><g filter="url(#f5a6fa1d8d)"><rect x="-9.525" width="114.3" fill="#000000" y="-9.375" height="112.499996" fill-opacity="0.5"/></g></mask><clipPath id="3bb5c992be"><path d="M 0.824219 1.035156 L 24.40625 1.035156 L 24.40625 24.617188 L 0.824219 24.617188 Z M 0.824219 1.035156 " clip-rule="nonzero"/></clipPath><clipPath id="b89a369175"><path d="M 12.613281 1.035156 C 6.101562 1.035156 0.824219 6.3125 0.824219 12.824219 C 0.824219 19.335938 6.101562 24.617188 12.613281 24.617188 C 19.125 24.617188 24.40625 19.335938 24.40625 12.824219 C 24.40625 6.3125 19.125 1.035156 12.613281 1.035156 Z M 12.613281 1.035156 " clip-rule="nonzero"/></clipPath><clipPath id="f321cca2f6"><rect x="0" width="25" y="0" height="25"/></clipPath><clipPath id="547664213d"><path d="M 34 0.242188 L 59 0.242188 L 59 25 L 34 25 Z M 34 0.242188 " clip-rule="nonzero"/></clipPath><mask id="40dd25a68c"><g filter="url(#f5a6fa1d8d)"><rect x="-9.525" width="114.3" fill="#000000" y="-9.375" height="112.499996" fill-opacity="0.5"/></g></mask><clipPath id="7809ce01b0"><path d="M 0.824219 0.242188 L 24.40625 0.242188 L 24.40625 23.824219 L 0.824219 23.824219 Z M 0.824219 0.242188 " clip-rule="nonzero"/></clipPath><clipPath id="1749b5b7d7"><path d="M 12.613281 0.242188 C 6.101562 0.242188 0.824219 5.519531 0.824219 12.03125 C 0.824219 18.546875 6.101562 23.824219 12.613281 23.824219 C 19.125 23.824219 24.40625 18.546875 24.40625 12.03125 C 24.40625 5.519531 19.125 0.242188 12.613281 0.242188 Z M 12.613281 0.242188 " clip-rule="nonzero"/></clipPath><clipPath id="760655a4d1"><rect x="0" width="25" y="0" height="25"/></clipPath><clipPath id="856c1968b5"><path d="M 70 34 L 94.503906 34 L 94.503906 59 L 70 59 Z M 70 34 " clip-rule="nonzero"/></clipPath><mask id="3ded63646b"><g filter="url(#f5a6fa1d8d)"><rect x="-9.525" width="114.3" fill="#000000" y="-9.375" height="112.499996" fill-opacity="0.5"/></g></mask><clipPath id="0459eba5cc"><path d="M 0.324219 1 L 23.90625 1 L 23.90625 24.582031 L 0.324219 24.582031 Z M 0.324219 1 " clip-rule="nonzero"/></clipPath><clipPath id="5f1ed2b15a"><path d="M 12.117188 1 C 5.605469 1 0.324219 6.277344 0.324219 12.792969 C 0.324219 19.304688 5.605469 24.582031 12.117188 24.582031 C 18.628906 24.582031 23.90625 19.304688 23.90625 12.792969 C 23.90625 6.277344 18.628906 1 12.117188 1 Z M 12.117188 1 " clip-rule="nonzero"/></clipPath><clipPath id="8d0af71c77"><rect x="0" width="25" y="0" height="25"/></clipPath><mask id="e80e3168bd"><g filter="url(#f5a6fa1d8d)"><rect x="-9.525" width="114.3" fill="#000000" y="-9.375" height="112.499996" fill-opacity="0.5"/></g></mask><clipPath id="49e15252cc"><path d="M 0 1 L 23.582031 1 L 23.582031 24.582031 L 0 24.582031 Z M 0 1 " clip-rule="nonzero"/></clipPath><clipPath id="3f57bfa24d"><path d="M 11.789062 1 C 5.277344 1 0 6.277344 0 12.792969 C 0 19.304688 5.277344 24.582031 11.789062 24.582031 C 18.304688 24.582031 23.582031 19.304688 23.582031 12.792969 C 23.582031 6.277344 18.304688 1 11.789062 1 Z M 11.789062 1 " clip-rule="nonzero"/></clipPath><clipPath id="7937b15e6d"><rect x="0" width="24" y="0" height="25"/></clipPath></defs><g mask="url(#c11af40d4a)"><g transform="matrix(1, 0, 0, 1, 9, 9)"><g clip-path="url(#5b73ef02bd)"><g clip-path="url(#bbe3be7b5a)"><g clip-path="url(#0c54079400)"><path fill="#2b8b25" d="M 0.625 0.800781 L 74.605469 0.800781 L 74.605469 74.78125 L 0.625 74.78125 Z M 0.625 0.800781 " fill-opacity="1" fill-rule="nonzero"/></g></g></g></g></g><g mask="url(#65cc6fd1b0)"><g transform="matrix(1, 0, 0, 1, 34, 68)"><g clip-path="url(#f321cca2f6)"><g clip-path="url(#3bb5c992be)"><g clip-path="url(#b89a369175)"><path fill="#2b8b25" d="M 0.824219 1.035156 L 24.40625 1.035156 L 24.40625 24.617188 L 0.824219 24.617188 Z M 0.824219 1.035156 " fill-opacity="1" fill-rule="nonzero"/></g></g></g></g></g><g clip-path="url(#547664213d)"><g mask="url(#40dd25a68c)"><g transform="matrix(1, 0, 0, 1, 34, 0.000000000000000999)"><g clip-path="url(#760655a4d1)"><g clip-path="url(#7809ce01b0)"><g clip-path="url(#1749b5b7d7)"><path fill="#2b8b25" d="M 0.824219 0.242188 L 24.40625 0.242188 L 24.40625 23.824219 L 0.824219 23.824219 Z M 0.824219 0.242188 " fill-opacity="1" fill-rule="nonzero"/></g></g></g></g></g></g><g clip-path="url(#856c1968b5)"><g mask="url(#3ded63646b)"><g transform="matrix(1, 0, 0, 1, 70, 34)"><g clip-path="url(#8d0af71c77)"><g clip-path="url(#0459eba5cc)"><g clip-path="url(#5f1ed2b15a)"><path fill="#2b8b25" d="M 0.324219 1 L 23.90625 1 L 23.90625 24.582031 L 0.324219 24.582031 Z M 0.324219 1 " fill-opacity="1" fill-rule="nonzero"/></g></g></g></g></g></g><g mask="url(#e80e3168bd)"><g transform="matrix(1, 0, 0, 1, 0, 34)"><g clip-path="url(#7937b15e6d)"><g clip-path="url(#49e15252cc)"><g clip-path="url(#3f57bfa24d)"><path fill="#2b8b25" d="M 0 1 L 23.582031 1 L 23.582031 24.582031 L 0 24.582031 Z M 0 1 " fill-opacity="1" fill-rule="nonzero"/></g></g></g></g></g></svg>