<svg xmlns="http://www.w3.org/2000/svg" xmlns:xlink="http://www.w3.org/1999/xlink" width="165" zoomAndPan="magnify" viewBox="0 0 123.75 122.249994" height="163" preserveAspectRatio="xMidYMid meet" version="1.0"><defs><filter x="0%" y="0%" width="100%" height="100%" id="ba230d4627"><feColorMatrix values="0 0 0 0 1 0 0 0 0 1 0 0 0 0 1 0 0 0 1 0" color-interpolation-filters="sRGB"/></filter><mask id="fb21570034"><g filter="url(#ba230d4627)"><rect x="-12.375" width="148.5" fill="#000000" y="-12.224999" height="146.699993" fill-opacity="0.5"/></g></mask><clipPath id="63be3926ff"><path d="M 0.171875 0.320312 L 102.832031 0.320312 L 102.832031 102.980469 L 0.171875 102.980469 Z M 0.171875 0.320312 " clip-rule="nonzero"/></clipPath><clipPath id="3cbb88f25a"><path d="M 17.316406 0.320312 L 85.6875 0.320312 C 90.234375 0.320312 94.59375 2.125 97.808594 5.34375 C 101.027344 8.558594 102.832031 12.917969 102.832031 17.464844 L 102.832031 85.835938 C 102.832031 90.382812 101.027344 94.746094 97.808594 97.960938 C 94.59375 101.175781 90.234375 102.980469 85.6875 102.980469 L 17.316406 102.980469 C 12.769531 102.980469 8.40625 101.175781 5.191406 97.960938 C 1.976562 94.746094 0.171875 90.382812 0.171875 85.835938 L 0.171875 17.464844 C 0.171875 12.917969 1.976562 8.558594 5.191406 5.34375 C 8.40625 2.125 12.769531 0.320312 17.316406 0.320312 Z M 17.316406 0.320312 " clip-rule="nonzero"/></clipPath><clipPath id="4d263b49c0"><rect x="0" width="103" y="0" height="104"/></clipPath><clipPath id="e1cf88d286"><path d="M 28 97 L 53 97 L 53 121.503906 L 28 121.503906 Z M 28 97 " clip-rule="nonzero"/></clipPath><mask id="2a7a076e50"><g filter="url(#ba230d4627)"><rect x="-12.375" width="148.5" fill="#000000" y="-12.224999" height="146.699993" fill-opacity="0.5"/></g></mask><clipPath id="36bd543019"><path d="M 1 0.445312 L 24.625 0.445312 L 24.625 24.066406 L 1 24.066406 Z M 1 0.445312 " clip-rule="nonzero"/></clipPath><clipPath id="c43560f739"><path d="M 12.8125 0.445312 C 6.289062 0.445312 1 5.730469 1 12.253906 C 1 18.777344 6.289062 24.066406 12.8125 24.066406 C 19.335938 24.066406 24.625 18.777344 24.625 12.253906 C 24.625 5.730469 19.335938 0.445312 12.8125 0.445312 Z M 12.8125 0.445312 " clip-rule="nonzero"/></clipPath><clipPath id="b294852479"><rect x="0" width="25" y="0" height="25"/></clipPath><clipPath id="51e0fb2331"><path d="M 71 97 L 96 97 L 96 121.503906 L 71 121.503906 Z M 71 97 " clip-rule="nonzero"/></clipPath><mask id="5e32195053"><g filter="url(#ba230d4627)"><rect x="-12.375" width="148.5" fill="#000000" y="-12.224999" height="146.699993" fill-opacity="0.5"/></g></mask><clipPath id="fea5223544"><path d="M 0.503906 0.445312 L 24.125 0.445312 L 24.125 24.066406 L 0.503906 24.066406 Z M 0.503906 0.445312 " clip-rule="nonzero"/></clipPath><clipPath id="6737233113"><path d="M 12.316406 0.445312 C 5.792969 0.445312 0.503906 5.730469 0.503906 12.253906 C 0.503906 18.777344 5.792969 24.066406 12.316406 24.066406 C 18.839844 24.066406 24.125 18.777344 24.125 12.253906 C 24.125 5.730469 18.839844 0.445312 12.316406 0.445312 Z M 12.316406 0.445312 " clip-rule="nonzero"/></clipPath><clipPath id="2c109e9577"><rect x="0" width="25" y="0" height="25"/></clipPath><mask id="5c9d6b09d6"><g filter="url(#ba230d4627)"><rect x="-12.375" width="148.5" fill="#000000" y="-12.224999" height="146.699993" fill-opacity="0.5"/></g></mask><clipPath id="1a5daa5ecd"><path d="M 1 0 L 24.625 0 L 24.625 23.621094 L 1 23.621094 Z M 1 0 " clip-rule="nonzero"/></clipPath><clipPath id="78ced712ff"><path d="M 12.8125 0 C 6.289062 0 1 5.289062 1 11.8125 C 1 18.335938 6.289062 23.621094 12.8125 23.621094 C 19.335938 23.621094 24.625 18.335938 24.625 11.8125 C 24.625 5.289062 19.335938 0 12.8125 0 Z M 12.8125 0 " clip-rule="nonzero"/></clipPath><clipPath id="a15b98d06b"><rect x="0" width="25" y="0" height="24"/></clipPath><mask id="8f9b07cbd7"><g filter="url(#ba230d4627)"><rect x="-12.375" width="148.5" fill="#000000" y="-12.224999" height="146.699993" fill-opacity="0.5"/></g></mask><clipPath id="b78f759cc0"><path d="M 0.503906 0 L 24.125 0 L 24.125 23.621094 L 0.503906 23.621094 Z M 0.503906 0 " clip-rule="nonzero"/></clipPath><clipPath id="4ec1a3d72c"><path d="M 12.316406 0 C 5.792969 0 0.503906 5.289062 0.503906 11.8125 C 0.503906 18.335938 5.792969 23.621094 12.316406 23.621094 C 18.839844 23.621094 24.125 18.335938 24.125 11.8125 C 24.125 5.289062 18.839844 0 12.316406 0 Z M 12.316406 0 " clip-rule="nonzero"/></clipPath><clipPath id="138ed7b83b"><rect x="0" width="25" y="0" height="24"/></clipPath><clipPath id="9f119836aa"><path d="M 99 29 L 123.25 29 L 123.25 54 L 99 54 Z M 99 29 " clip-rule="nonzero"/></clipPath><mask id="ec0e6d8926"><g filter="url(#ba230d4627)"><rect x="-12.375" width="148.5" fill="#000000" y="-12.224999" height="146.699993" fill-opacity="0.5"/></g></mask><clipPath id="ca410a42b3"><path d="M 0.53125 0.691406 L 24.152344 0.691406 L 24.152344 24.316406 L 0.53125 24.316406 Z M 0.53125 0.691406 " clip-rule="nonzero"/></clipPath><clipPath id="2e07e0bc76"><path d="M 12.339844 0.691406 C 5.816406 0.691406 0.53125 5.980469 0.53125 12.503906 C 0.53125 19.027344 5.816406 24.316406 12.339844 24.316406 C 18.863281 24.316406 24.152344 19.027344 24.152344 12.503906 C 24.152344 5.980469 18.863281 0.691406 12.339844 0.691406 Z M 12.339844 0.691406 " clip-rule="nonzero"/></clipPath><clipPath id="bcf7f38080"><rect x="0" width="25" y="0" height="25"/></clipPath><clipPath id="f6044e2de5"><path d="M 99 67 L 123.25 67 L 123.25 92 L 99 92 Z M 99 67 " clip-rule="nonzero"/></clipPath><mask id="160db1b251"><g filter="url(#ba230d4627)"><rect x="-12.375" width="148.5" fill="#000000" y="-12.224999" height="146.699993" fill-opacity="0.5"/></g></mask><clipPath id="56772bfa4a"><path d="M 0.53125 0.417969 L 24.152344 0.417969 L 24.152344 24.042969 L 0.53125 24.042969 Z M 0.53125 0.417969 " clip-rule="nonzero"/></clipPath><clipPath id="7c67974627"><path d="M 12.339844 0.417969 C 5.816406 0.417969 0.53125 5.707031 0.53125 12.230469 C 0.53125 18.753906 5.816406 24.042969 12.339844 24.042969 C 18.863281 24.042969 24.152344 18.753906 24.152344 12.230469 C 24.152344 5.707031 18.863281 0.417969 12.339844 0.417969 Z M 12.339844 0.417969 " clip-rule="nonzero"/></clipPath><clipPath id="3fc75958f3"><rect x="0" width="25" y="0" height="25"/></clipPath><clipPath id="b9695e89da"><path d="M 0.253906 29 L 25 29 L 25 54 L 0.253906 54 Z M 0.253906 29 " clip-rule="nonzero"/></clipPath><mask id="7e375fdd9d"><g filter="url(#ba230d4627)"><rect x="-12.375" width="148.5" fill="#000000" y="-12.224999" height="146.699993" fill-opacity="0.5"/></g></mask><clipPath id="aced12eb81"><path d="M 0.253906 0.691406 L 23.875 0.691406 L 23.875 24.316406 L 0.253906 24.316406 Z M 0.253906 0.691406 " clip-rule="nonzero"/></clipPath><clipPath id="5cf547c822"><path d="M 12.0625 0.691406 C 5.542969 0.691406 0.253906 5.980469 0.253906 12.503906 C 0.253906 19.027344 5.542969 24.316406 12.0625 24.316406 C 18.585938 24.316406 23.875 19.027344 23.875 12.503906 C 23.875 5.980469 18.585938 0.691406 12.0625 0.691406 Z M 12.0625 0.691406 " clip-rule="nonzero"/></clipPath><clipPath id="bd88159155"><rect x="0" width="25" y="0" height="25"/></clipPath><clipPath id="be5abb8829"><path d="M 0.253906 67 L 25 67 L 25 92 L 0.253906 92 Z M 0.253906 67 " clip-rule="nonzero"/></clipPath><mask id="69c413f4a7"><g filter="url(#ba230d4627)"><rect x="-12.375" width="148.5" fill="#000000" y="-12.224999" height="146.699993" fill-opacity="0.5"/></g></mask><clipPath id="a508323a3f"><path d="M 0.9375 0.417969 L 24.558594 0.417969 L 24.558594 24.042969 L 0.9375 24.042969 Z M 0.9375 0.417969 " clip-rule="nonzero"/></clipPath><clipPath id="6cb8b56176"><path d="M 12.75 0.417969 C 6.226562 0.417969 0.9375 5.707031 0.9375 12.230469 C 0.9375 18.753906 6.226562 24.042969 12.75 24.042969 C 19.273438 24.042969 24.558594 18.753906 24.558594 12.230469 C 24.558594 5.707031 19.273438 0.417969 12.75 0.417969 Z M 12.75 0.417969 " clip-rule="nonzero"/></clipPath><clipPath id="1b4428a216"><rect x="0" width="25" y="0" height="25"/></clipPath></defs><g mask="url(#fb21570034)"><g transform="matrix(1, 0, 0, 1, 10, 10)"><g clip-path="url(#4d263b49c0)"><g clip-path="url(#63be3926ff)"><g clip-path="url(#3cbb88f25a)"><path fill="#2b8b25" d="M 0.171875 0.320312 L 102.832031 0.320312 L 102.832031 102.980469 L 0.171875 102.980469 Z M 0.171875 0.320312 " fill-opacity="1" fill-rule="nonzero"/></g></g></g></g></g><g clip-path="url(#e1cf88d286)"><g mask="url(#2a7a076e50)"><g transform="matrix(1, 0, 0, 1, 28, 97)"><g clip-path="url(#b294852479)"><g clip-path="url(#36bd543019)"><g clip-path="url(#c43560f739)"><path fill="#2b8b25" d="M 1 0.445312 L 24.625 0.445312 L 24.625 24.066406 L 1 24.066406 Z M 1 0.445312 " fill-opacity="1" fill-rule="nonzero"/></g></g></g></g></g></g><g clip-path="url(#51e0fb2331)"><g mask="url(#5e32195053)"><g transform="matrix(1, 0, 0, 1, 71, 97)"><g clip-path="url(#2c109e9577)"><g clip-path="url(#fea5223544)"><g clip-path="url(#6737233113)"><path fill="#2b8b25" d="M 0.503906 0.445312 L 24.125 0.445312 L 24.125 24.066406 L 0.503906 24.066406 Z M 0.503906 0.445312 " fill-opacity="1" fill-rule="nonzero"/></g></g></g></g></g></g><g mask="url(#5c9d6b09d6)"><g transform="matrix(1, 0, 0, 1, 28, -0.000000000000001057)"><g clip-path="url(#a15b98d06b)"><g clip-path="url(#1a5daa5ecd)"><g clip-path="url(#78ced712ff)"><path fill="#2b8b25" d="M 1 0 L 24.625 0 L 24.625 23.621094 L 1 23.621094 Z M 1 0 " fill-opacity="1" fill-rule="nonzero"/></g></g></g></g></g><g mask="url(#8f9b07cbd7)"><g transform="matrix(1, 0, 0, 1, 71, -0.000000000000001057)"><g clip-path="url(#138ed7b83b)"><g clip-path="url(#b78f759cc0)"><g clip-path="url(#4ec1a3d72c)"><path fill="#2b8b25" d="M 0.503906 0 L 24.125 0 L 24.125 23.621094 L 0.503906 23.621094 Z M 0.503906 0 " fill-opacity="1" fill-rule="nonzero"/></g></g></g></g></g><g clip-path="url(#9f119836aa)"><g mask="url(#ec0e6d8926)"><g transform="matrix(1, 0, 0, 1, 99, 29)"><g clip-path="url(#bcf7f38080)"><g clip-path="url(#ca410a42b3)"><g clip-path="url(#2e07e0bc76)"><path fill="#2b8b25" d="M 0.53125 0.691406 L 24.152344 0.691406 L 24.152344 24.316406 L 0.53125 24.316406 Z M 0.53125 0.691406 " fill-opacity="1" fill-rule="nonzero"/></g></g></g></g></g></g><g clip-path="url(#f6044e2de5)"><g mask="url(#160db1b251)"><g transform="matrix(1, 0, 0, 1, 99, 67)"><g clip-path="url(#3fc75958f3)"><g clip-path="url(#56772bfa4a)"><g clip-path="url(#7c67974627)"><path fill="#2b8b25" d="M 0.53125 0.417969 L 24.152344 0.417969 L 24.152344 24.042969 L 0.53125 24.042969 Z M 0.53125 0.417969 " fill-opacity="1" fill-rule="nonzero"/></g></g></g></g></g></g><g clip-path="url(#b9695e89da)"><g mask="url(#7e375fdd9d)"><g transform="matrix(1, 0, 0, 1, 0, 29)"><g clip-path="url(#bd88159155)"><g clip-path="url(#aced12eb81)"><g clip-path="url(#5cf547c822)"><path fill="#2b8b25" d="M 0.253906 0.691406 L 23.875 0.691406 L 23.875 24.316406 L 0.253906 24.316406 Z M 0.253906 0.691406 " fill-opacity="1" fill-rule="nonzero"/></g></g></g></g></g></g><g clip-path="url(#be5abb8829)"><g mask="url(#69c413f4a7)"><g transform="matrix(1, 0, 0, 1, 0, 67)"><g clip-path="url(#1b4428a216)"><g clip-path="url(#a508323a3f)"><g clip-path="url(#6cb8b56176)"><path fill="#2b8b25" d="M 0.9375 0.417969 L 24.558594 0.417969 L 24.558594 24.042969 L 0.9375 24.042969 Z M 0.9375 0.417969 " fill-opacity="1" fill-rule="nonzero"/></g></g></g></g></g></g></svg>