<svg xmlns="http://www.w3.org/2000/svg" xmlns:xlink="http://www.w3.org/1999/xlink" width="162" zoomAndPan="magnify" viewBox="0 0 121.5 123.000003" height="164" preserveAspectRatio="xMidYMid meet" version="1.0"><defs><filter x="0%" y="0%" width="100%" height="100%" id="725ca76017"><feColorMatrix values="0 0 0 0 1 0 0 0 0 1 0 0 0 0 1 0 0 0 1 0" color-interpolation-filters="sRGB"/></filter><mask id="83f1fd204c"><g filter="url(#725ca76017)"><rect x="-12.15" width="145.8" fill="currentColor" y="-12.3" height="147.600004" fill-opacity="0.5"/></g></mask><clipPath id="116aad1a6b"><path d="M 0.710938 0.523438 L 103.171875 0.523438 L 103.171875 102.980469 L 0.710938 102.980469 Z M 0.710938 0.523438 " clip-rule="nonzero"/></clipPath><clipPath id="762cd2661e"><path d="M 17.824219 0.523438 L 86.058594 0.523438 C 90.597656 0.523438 94.949219 2.324219 98.160156 5.535156 C 101.367188 8.742188 103.171875 13.09375 103.171875 17.632812 L 103.171875 85.871094 C 103.171875 90.40625 101.367188 94.761719 98.160156 97.96875 C 94.949219 101.179688 90.597656 102.980469 86.058594 102.980469 L 17.824219 102.980469 C 13.285156 102.980469 8.933594 101.179688 5.722656 97.96875 C 2.515625 94.761719 0.710938 90.40625 0.710938 85.871094 L 0.710938 17.632812 C 0.710938 13.09375 2.515625 8.742188 5.722656 5.535156 C 8.933594 2.324219 13.285156 0.523438 17.824219 0.523438 Z M 17.824219 0.523438 " clip-rule="nonzero"/></clipPath><clipPath id="794104eaf1"><rect x="0" width="104" y="0" height="104"/></clipPath><mask id="1fd08c9925"><g filter="url(#725ca76017)"><rect x="-12.15" width="145.8" fill="currentColor" y="-12.3" height="147.600004" fill-opacity="0.5"/></g></mask><clipPath id="a69052a800"><path d="M 0.25 0.457031 L 19.296875 0.457031 L 19.296875 19.503906 L 0.25 19.503906 Z M 0.25 0.457031 " clip-rule="nonzero"/></clipPath><clipPath id="35c0a31890"><path d="M 9.773438 0.457031 C 4.515625 0.457031 0.25 4.722656 0.25 9.980469 C 0.25 15.238281 4.515625 19.503906 9.773438 19.503906 C 15.03125 19.503906 19.296875 15.238281 19.296875 9.980469 C 19.296875 4.722656 15.03125 0.457031 9.773438 0.457031 Z M 9.773438 0.457031 " clip-rule="nonzero"/></clipPath><clipPath id="99b5e2eaff"><rect x="0" width="20" y="0" height="20"/></clipPath><mask id="dc02d2703e"><g filter="url(#725ca76017)"><rect x="-12.15" width="145.8" fill="currentColor" y="-12.3" height="147.600004" fill-opacity="0.5"/></g></mask><clipPath id="88cc3a1a12"><path d="M 0.585938 0.457031 L 19.632812 0.457031 L 19.632812 19.503906 L 0.585938 19.503906 Z M 0.585938 0.457031 " clip-rule="nonzero"/></clipPath><clipPath id="e2021dd738"><path d="M 10.109375 0.457031 C 4.851562 0.457031 0.585938 4.722656 0.585938 9.980469 C 0.585938 15.238281 4.851562 19.503906 10.109375 19.503906 C 15.367188 19.503906 19.632812 15.238281 19.632812 9.980469 C 19.632812 4.722656 15.367188 0.457031 10.109375 0.457031 Z M 10.109375 0.457031 " clip-rule="nonzero"/></clipPath><clipPath id="6487287caf"><rect x="0" width="20" y="0" height="20"/></clipPath><mask id="f8efbab694"><g filter="url(#725ca76017)"><rect x="-12.15" width="145.8" fill="currentColor" y="-12.3" height="147.600004" fill-opacity="0.5"/></g></mask><clipPath id="ece534290a"><path d="M 0.25 0 L 19.296875 0 L 19.296875 19.042969 L 0.25 19.042969 Z M 0.25 0 " clip-rule="nonzero"/></clipPath><clipPath id="6b26801848"><path d="M 9.773438 0 C 4.515625 0 0.25 4.261719 0.25 9.523438 C 0.25 14.78125 4.515625 19.042969 9.773438 19.042969 C 15.03125 19.042969 19.296875 14.78125 19.296875 9.523438 C 19.296875 4.261719 15.03125 0 9.773438 0 Z M 9.773438 0 " clip-rule="nonzero"/></clipPath><clipPath id="737bcc94a6"><rect x="0" width="20" y="0" height="20"/></clipPath><mask id="01c81c4cd7"><g filter="url(#725ca76017)"><rect x="-12.15" width="145.8" fill="currentColor" y="-12.3" height="147.600004" fill-opacity="0.5"/></g></mask><clipPath id="b28891d0db"><path d="M 0.585938 0 L 19.632812 0 L 19.632812 19.042969 L 0.585938 19.042969 Z M 0.585938 0 " clip-rule="nonzero"/></clipPath><clipPath id="d4b44c4cce"><path d="M 10.109375 0 C 4.851562 0 0.585938 4.261719 0.585938 9.523438 C 0.585938 14.78125 4.851562 19.042969 10.109375 19.042969 C 15.367188 19.042969 19.632812 14.78125 19.632812 9.523438 C 19.632812 4.261719 15.367188 0 10.109375 0 Z M 10.109375 0 " clip-rule="nonzero"/></clipPath><clipPath id="1272baa610"><rect x="0" width="20" y="0" height="20"/></clipPath><mask id="97ce20b23f"><g filter="url(#725ca76017)"><rect x="-12.15" width="145.8" fill="currentColor" y="-12.3" height="147.600004" fill-opacity="0.5"/></g></mask><clipPath id="08c1fb5932"><path d="M 1.160156 0.324219 L 20.207031 0.324219 L 20.207031 19.371094 L 1.160156 19.371094 Z M 1.160156 0.324219 " clip-rule="nonzero"/></clipPath><clipPath id="ff5958bc19"><path d="M 10.683594 0.324219 C 5.425781 0.324219 1.160156 4.589844 1.160156 9.847656 C 1.160156 15.105469 5.425781 19.371094 10.683594 19.371094 C 15.941406 19.371094 20.207031 15.105469 20.207031 9.847656 C 20.207031 4.589844 15.941406 0.324219 10.683594 0.324219 Z M 10.683594 0.324219 " clip-rule="nonzero"/></clipPath><clipPath id="ab5b6b0f18"><rect x="0" width="21" y="0" height="20"/></clipPath><clipPath id="2693611788"><path d="M 101 68 L 120.761719 68 L 120.761719 89 L 101 89 Z M 101 68 " clip-rule="nonzero"/></clipPath><mask id="cab66a170d"><g filter="url(#725ca76017)"><rect x="-12.15" width="145.8" fill="currentColor" y="-12.3" height="147.600004" fill-opacity="0.5"/></g></mask><clipPath id="1c863803c7"><path d="M 0.648438 0.878906 L 19.691406 0.878906 L 19.691406 19.925781 L 0.648438 19.925781 Z M 0.648438 0.878906 " clip-rule="nonzero"/></clipPath><clipPath id="b970a84647"><path d="M 10.171875 0.878906 C 4.910156 0.878906 0.648438 5.144531 0.648438 10.402344 C 0.648438 15.660156 4.910156 19.925781 10.171875 19.925781 C 15.429688 19.925781 19.691406 15.660156 19.691406 10.402344 C 19.691406 5.144531 15.429688 0.878906 10.171875 0.878906 Z M 10.171875 0.878906 " clip-rule="nonzero"/></clipPath><clipPath id="9ed2891f55"><rect x="0" width="20" y="0" height="21"/></clipPath><clipPath id="8c011884cf"><path d="M 0.242188 30 L 20 30 L 20 50 L 0.242188 50 Z M 0.242188 30 " clip-rule="nonzero"/></clipPath><mask id="b85170dfd9"><g filter="url(#725ca76017)"><rect x="-12.15" width="145.8" fill="currentColor" y="-12.3" height="147.600004" fill-opacity="0.5"/></g></mask><clipPath id="fee2ecf21a"><path d="M 0.242188 0.324219 L 19.285156 0.324219 L 19.285156 19.371094 L 0.242188 19.371094 Z M 0.242188 0.324219 " clip-rule="nonzero"/></clipPath><clipPath id="d1451e3d3b"><path d="M 9.765625 0.324219 C 4.503906 0.324219 0.242188 4.589844 0.242188 9.847656 C 0.242188 15.105469 4.503906 19.371094 9.765625 19.371094 C 15.023438 19.371094 19.285156 15.105469 19.285156 9.847656 C 19.285156 4.589844 15.023438 0.324219 9.765625 0.324219 Z M 9.765625 0.324219 " clip-rule="nonzero"/></clipPath><clipPath id="cb167fbf54"><rect x="0" width="20" y="0" height="20"/></clipPath><clipPath id="1af4ef7171"><path d="M 0.242188 68 L 20 68 L 20 89 L 0.242188 89 Z M 0.242188 68 " clip-rule="nonzero"/></clipPath><mask id="c4b77b7d92"><g filter="url(#725ca76017)"><rect x="-12.15" width="145.8" fill="currentColor" y="-12.3" height="147.600004" fill-opacity="0.5"/></g></mask><clipPath id="bd91f0fe6e"><path d="M 0.242188 0.878906 L 19.285156 0.878906 L 19.285156 19.925781 L 0.242188 19.925781 Z M 0.242188 0.878906 " clip-rule="nonzero"/></clipPath><clipPath id="f894358b7c"><path d="M 9.765625 0.878906 C 4.503906 0.878906 0.242188 5.144531 0.242188 10.402344 C 0.242188 15.660156 4.503906 19.925781 9.765625 19.925781 C 15.023438 19.925781 19.285156 15.660156 19.285156 10.402344 C 19.285156 5.144531 15.023438 0.878906 9.765625 0.878906 Z M 9.765625 0.878906 " clip-rule="nonzero"/></clipPath><clipPath id="cb81a03af0"><rect x="0" width="20" y="0" height="21"/></clipPath></defs><g mask="url(#83f1fd204c)"><g transform="matrix(1, 0, 0, 1, 8, 9)"><g clip-path="url(#794104eaf1)"><g clip-path="url(#116aad1a6b)"><g clip-path="url(#762cd2661e)"><path fill="currentColor" d="M 0.710938 0.523438 L 103.171875 0.523438 L 103.171875 102.980469 L 0.710938 102.980469 Z M 0.710938 0.523438 " fill-opacity="1" fill-rule="nonzero"/></g></g></g></g></g><g mask="url(#1fd08c9925)"><g transform="matrix(1, 0, 0, 1, 28, 102)"><g clip-path="url(#99b5e2eaff)"><g clip-path="url(#a69052a800)"><g clip-path="url(#35c0a31890)"><path fill="currentColor" d="M 0.25 0.457031 L 19.296875 0.457031 L 19.296875 19.503906 L 0.25 19.503906 Z M 0.25 0.457031 " fill-opacity="1" fill-rule="nonzero"/></g></g></g></g></g><g mask="url(#dc02d2703e)"><g transform="matrix(1, 0, 0, 1, 70, 102)"><g clip-path="url(#6487287caf)"><g clip-path="url(#88cc3a1a12)"><g clip-path="url(#e2021dd738)"><path fill="currentColor" d="M 0.585938 0.457031 L 19.632812 0.457031 L 19.632812 19.503906 L 0.585938 19.503906 Z M 0.585938 0.457031 " fill-opacity="1" fill-rule="nonzero"/></g></g></g></g></g><g mask="url(#f8efbab694)"><g transform="matrix(1, 0, 0, 1, 28, 0.000000000000032234)"><g clip-path="url(#737bcc94a6)"><g clip-path="url(#ece534290a)"><g clip-path="url(#6b26801848)"><path fill="currentColor" d="M 0.25 0 L 19.296875 0 L 19.296875 19.042969 L 0.25 19.042969 Z M 0.25 0 " fill-opacity="1" fill-rule="nonzero"/></g></g></g></g></g><g mask="url(#01c81c4cd7)"><g transform="matrix(1, 0, 0, 1, 70, 0.000000000000032234)"><g clip-path="url(#1272baa610)"><g clip-path="url(#b28891d0db)"><g clip-path="url(#d4b44c4cce)"><path fill="currentColor" d="M 0.585938 0 L 19.632812 0 L 19.632812 19.042969 L 0.585938 19.042969 Z M 0.585938 0 " fill-opacity="1" fill-rule="nonzero"/></g></g></g></g></g><g mask="url(#97ce20b23f)"><g transform="matrix(1, 0, 0, 1, 99, 30)"><g clip-path="url(#ab5b6b0f18)"><g clip-path="url(#08c1fb5932)"><g clip-path="url(#ff5958bc19)"><path fill="currentColor" d="M 1.160156 0.324219 L 20.207031 0.324219 L 20.207031 19.371094 L 1.160156 19.371094 Z M 1.160156 0.324219 " fill-opacity="1" fill-rule="nonzero"/></g></g></g></g></g><g clip-path="url(#2693611788)"><g mask="url(#cab66a170d)"><g transform="matrix(1, 0, 0, 1, 101, 68)"><g clip-path="url(#9ed2891f55)"><g clip-path="url(#1c863803c7)"><g clip-path="url(#b970a84647)"><path fill="currentColor" d="M 0.648438 0.878906 L 19.691406 0.878906 L 19.691406 19.925781 L 0.648438 19.925781 Z M 0.648438 0.878906 " fill-opacity="1" fill-rule="nonzero"/></g></g></g></g></g></g><g clip-path="url(#8c011884cf)"><g mask="url(#b85170dfd9)"><g transform="matrix(1, 0, 0, 1, 0.000000000000000028, 30)"><g clip-path="url(#cb167fbf54)"><g clip-path="url(#fee2ecf21a)"><g clip-path="url(#d1451e3d3b)"><path fill="currentColor" d="M 0.242188 0.324219 L 19.285156 0.324219 L 19.285156 19.371094 L 0.242188 19.371094 Z M 0.242188 0.324219 " fill-opacity="1" fill-rule="nonzero"/></g></g></g></g></g></g><g clip-path="url(#1af4ef7171)"><g mask="url(#c4b77b7d92)"><g transform="matrix(1, 0, 0, 1, 0.000000000000000028, 68)"><g clip-path="url(#cb81a03af0)"><g clip-path="url(#bd91f0fe6e)"><g clip-path="url(#f894358b7c)"><path fill="currentColor" d="M 0.242188 0.878906 L 19.285156 0.878906 L 19.285156 19.925781 L 0.242188 19.925781 Z M 0.242188 0.878906 " fill-opacity="1" fill-rule="nonzero"/></g></g></g></g></g></g></svg>