<svg xmlns="http://www.w3.org/2000/svg" xmlns:xlink="http://www.w3.org/1999/xlink" width="97" zoomAndPan="magnify" viewBox="0 0 72.75 50.249999" height="67" preserveAspectRatio="xMidYMid meet" version="1.0"><defs><filter x="0%" y="0%" width="100%" height="100%" id="a34de71a2f"><feColorMatrix values="0 0 0 0 1 0 0 0 0 1 0 0 0 0 1 0 0 0 1 0" color-interpolation-filters="sRGB"/></filter><clipPath id="108aa112d7"><path d="M 10 0 L 62 0 L 62 49.511719 L 10 49.511719 Z M 10 0 " clip-rule="nonzero"/></clipPath><mask id="c3057fd1db"><g filter="url(#a34de71a2f)"><rect x="-7.275" width="87.3" fill="currentColor" y="-5.025" height="60.299998" fill-opacity="0.5"/></g></mask><clipPath id="a235ebe64c"><path d="M 0.3125 0 L 51.375 0 L 51.375 49.328125 L 0.3125 49.328125 Z M 0.3125 0 " clip-rule="nonzero"/></clipPath><clipPath id="727867a6c4"><path d="M 40.289062 49.328125 L 11.4375 49.328125 C 5.316406 49.328125 0.355469 44.363281 0.355469 38.242188 L 0.355469 11.082031 C 0.355469 4.960938 5.316406 -0.00390625 11.4375 -0.00390625 L 40.289062 -0.00390625 C 46.410156 -0.00390625 51.375 4.960938 51.375 11.082031 L 51.375 38.242188 C 51.375 44.363281 46.410156 49.328125 40.289062 49.328125 Z M 40.289062 49.328125 " clip-rule="nonzero"/></clipPath><clipPath id="7523b32c17"><rect x="0" width="52" y="0" height="50"/></clipPath><clipPath id="28f7679332"><path d="M 0.410156 12 L 25 12 L 25 37 L 0.410156 37 Z M 0.410156 12 " clip-rule="nonzero"/></clipPath><mask id="0d7e70e73b"><g filter="url(#a34de71a2f)"><rect x="-7.275" width="87.3" fill="currentColor" y="-5.025" height="60.299998" fill-opacity="0.5"/></g></mask><clipPath id="418627b276"><path d="M 0.410156 0.53125 L 24.53125 0.53125 L 24.53125 24.890625 L 0.410156 24.890625 Z M 0.410156 0.53125 " clip-rule="nonzero"/></clipPath><clipPath id="68f9fef5fd"><path d="M 23.820312 0.628906 L 24.46875 24.035156 L 1.058594 24.683594 L 0.410156 1.277344 Z M 23.820312 0.628906 " clip-rule="nonzero"/></clipPath><clipPath id="064b491c09"><path d="M 24.144531 12.332031 C 23.964844 5.867188 18.578125 0.773438 12.113281 0.953125 C 5.648438 1.128906 0.554688 6.515625 0.734375 12.980469 C 0.914062 19.445312 6.296875 24.539062 12.761719 24.359375 C 19.226562 24.183594 24.320312 18.796875 24.144531 12.332031 Z M 24.144531 12.332031 " clip-rule="nonzero"/></clipPath><clipPath id="d2b696414b"><rect x="0" width="25" y="0" height="25"/></clipPath><clipPath id="82799e75c7"><path d="M 47 12 L 72.09375 12 L 72.09375 37 L 47 37 Z M 47 12 " clip-rule="nonzero"/></clipPath><mask id="e9061245b8"><g filter="url(#a34de71a2f)"><rect x="-7.275" width="87.3" fill="currentColor" y="-5.025" height="60.299998" fill-opacity="0.5"/></g></mask><clipPath id="6927095756"><path d="M 1 0.53125 L 25 0.53125 L 25 24.890625 L 1 24.890625 Z M 1 0.53125 " clip-rule="nonzero"/></clipPath><clipPath id="b747bfb2a6"><path d="M 24.273438 0.628906 L 24.921875 24.035156 L 1.511719 24.683594 L 0.863281 1.277344 Z M 24.273438 0.628906 " clip-rule="nonzero"/></clipPath><clipPath id="038bfe862e"><path d="M 24.597656 12.332031 C 24.417969 5.867188 19.03125 0.773438 12.566406 0.953125 C 6.105469 1.128906 1.007812 6.515625 1.1875 12.980469 C 1.367188 19.445312 6.75 24.539062 13.214844 24.359375 C 19.679688 24.183594 24.777344 18.796875 24.597656 12.332031 Z M 24.597656 12.332031 " clip-rule="nonzero"/></clipPath><clipPath id="fc5ec37214"><rect x="0" width="26" y="0" height="25"/></clipPath></defs><g clip-path="url(#108aa112d7)"><g mask="url(#c3057fd1db)"><g transform="matrix(1, 0, 0, 1, 10, 0)"><g clip-path="url(#7523b32c17)"><g clip-path="url(#a235ebe64c)"><g clip-path="url(#727867a6c4)"><path fill="currentColor" d="M 51.375 49.328125 L 0.3125 49.328125 L 0.3125 -0.00390625 L 51.375 -0.00390625 Z M 51.375 49.328125 " fill-opacity="1" fill-rule="nonzero"/></g></g></g></g></g></g><g clip-path="url(#28f7679332)"><g mask="url(#0d7e70e73b)"><g transform="matrix(1, 0, 0, 1, 0, 12)"><g clip-path="url(#d2b696414b)"><g clip-path="url(#418627b276)"><g clip-path="url(#68f9fef5fd)"><g clip-path="url(#064b491c09)"><path fill="currentColor" d="M 23.820312 0.628906 L 24.46875 24.035156 L 1.058594 24.683594 L 0.410156 1.277344 Z M 23.820312 0.628906 " fill-opacity="1" fill-rule="nonzero"/></g></g></g></g></g></g></g><g clip-path="url(#82799e75c7)"><g mask="url(#e9061245b8)"><g transform="matrix(1, 0, 0, 1, 47, 12)"><g clip-path="url(#fc5ec37214)"><g clip-path="url(#6927095756)"><g clip-path="url(#b747bfb2a6)"><g clip-path="url(#038bfe862e)"><path fill="currentColor" d="M 24.273438 0.628906 L 24.921875 24.035156 L 1.511719 24.683594 L 0.863281 1.277344 Z M 24.273438 0.628906 " fill-opacity="1" fill-rule="nonzero"/></g></g></g></g></g></g></g></svg>